<svg width="246" height="74" viewBox="0 0 246 74" fill="none" xmlns="http://www.w3.org/2000/svg">
<path fill-rule="evenodd" clip-rule="evenodd" d="M8.85196 1.65254e-05H237.28C239.622 1.65254e-05 241.868 0.923755 243.524 2.56803C245.18 4.21231 246.11 6.44246 246.11 8.76782V65.4295C246.11 67.7549 245.18 69.985 243.524 71.6293C241.868 73.2735 239.622 74.1973 237.28 74.1973H8.85196C6.51013 74.1973 4.26422 73.2735 2.60829 71.6293C0.952374 69.985 0.0220947 67.7549 0.0220947 65.4295V8.68013C0.0220947 6.35477 0.952374 4.12464 2.60829 2.48037C4.26422 0.836092 6.51013 -0.0876465 8.85196 -0.0876465V1.65254e-05Z" fill="url(#paint0_linear_9_2170)"/>
<path fill-rule="evenodd" clip-rule="evenodd" d="M8.85198 5.52374C8.02827 5.52948 7.23994 5.85692 6.65748 6.43529C6.07501 7.01366 5.74522 7.79648 5.73944 8.61439V65.2761C5.74527 66.092 6.07578 66.8725 6.65886 67.4473C7.24194 68.0222 8.03029 68.3449 8.85198 68.3448H237.281C238.1 68.3448 238.886 68.0215 239.466 67.446C240.045 66.8705 240.371 66.09 240.371 65.2761V8.68015C240.371 7.86424 240.046 7.08143 239.467 6.50245C238.888 5.92347 238.102 5.59528 237.281 5.5895L8.85198 5.52374Z" fill="url(#paint1_linear_9_2170)"/>
<path style="mix-blend-mode:screen" fill-rule="evenodd" clip-rule="evenodd" d="M8.85193 5.52373H237.281C237.692 5.52367 238.099 5.60506 238.478 5.76314C238.857 5.92122 239.2 6.15284 239.488 6.44437L243.461 2.47693C242.657 1.66763 241.698 1.02588 240.64 0.589279C239.583 0.152677 238.448 -0.0700084 237.303 -0.0657356H8.85193C6.53551 -0.0560505 4.31568 0.857132 2.67102 2.47693L6.64447 6.44437C6.93299 6.15382 7.27661 5.92282 7.65549 5.76481C8.03436 5.6068 8.441 5.52488 8.85193 5.52373Z" fill="url(#paint2_radial_9_2170)"/>
<path style="mix-blend-mode:multiply" fill-rule="evenodd" clip-rule="evenodd" d="M237.281 68.4105H8.85193C8.02651 68.4069 7.23487 68.0846 6.64447 67.5118L2.67102 71.4573C4.3121 73.0851 6.53237 74.0064 8.85193 74.0219H237.281C238.427 74.0221 239.562 73.7954 240.62 73.3551C241.677 72.9147 242.636 72.2696 243.439 71.4573L239.466 67.5118C238.877 68.0866 238.084 68.4093 237.258 68.4105H237.281Z" fill="url(#paint3_radial_9_2170)"/>
<path style="mix-blend-mode:screen" fill-rule="evenodd" clip-rule="evenodd" d="M5.62904 65.3419V8.68011C5.6261 8.27342 5.70459 7.87019 5.85996 7.4939C6.01533 7.1176 6.24449 6.77575 6.5341 6.48816L2.56067 2.52075C0.929403 4.15384 0.00975339 6.35803 -2.64459e-07 8.65817V65.3199C-0.00430338 66.4572 0.219959 67.5838 0.659653 68.6339C1.09935 69.684 1.74564 70.6365 2.56067 71.4355L6.5341 67.4899C5.95323 66.9063 5.62797 66.1185 5.62904 65.298V65.3419Z" fill="url(#paint4_radial_9_2170)"/>
<path style="mix-blend-mode:multiply" fill-rule="evenodd" clip-rule="evenodd" d="M240.371 8.68011V65.3419C240.372 66.1624 240.047 66.9502 239.466 67.5338L243.439 71.4793C244.254 70.6803 244.901 69.7278 245.34 68.6777C245.78 67.6276 246.004 66.501 246 65.3637V8.68011C245.99 6.37997 245.071 4.17575 243.439 2.54266L239.466 6.51011C239.756 6.79769 239.985 7.13955 240.14 7.51584C240.295 7.89214 240.374 8.29537 240.371 8.70205V8.68011Z" fill="url(#paint5_linear_9_2170)"/>
<path style="mix-blend-mode:screen" fill-rule="evenodd" clip-rule="evenodd" d="M5.62904 44.7376V8.68011C5.6261 8.27342 5.70459 7.87019 5.85996 7.4939C6.01533 7.1176 6.24449 6.77575 6.5341 6.48816L2.56067 2.52075C0.929403 4.15384 0.00975366 6.35803 0 8.65817V47.1706C1.66189 45.9556 3.59161 45.1516 5.62904 44.8252V44.7376Z" fill="url(#paint6_linear_9_2170)"/>
<path style="mix-blend-mode:screen" fill-rule="evenodd" clip-rule="evenodd" d="M237.281 0.832947H8.85195C6.75602 0.832947 4.74593 1.65969 3.26388 3.13132C1.78183 4.60294 0.949219 6.59891 0.949219 8.68011V44.9787C1.00087 45.4632 1.23129 45.9116 1.59607 46.2375C1.96086 46.5634 2.43421 46.7438 2.92491 46.7438C3.41561 46.7438 3.88895 46.5634 4.25373 46.2375C4.61852 45.9116 4.84893 45.4632 4.90059 44.9787V8.68011C4.90059 7.63951 5.31688 6.64154 6.05791 5.90573C6.79893 5.16992 7.80398 4.75651 8.85195 4.75651H237.281C238.325 4.7623 239.324 5.17824 240.06 5.91342C240.797 6.64861 241.21 7.6433 241.21 8.68011V17.141C241.261 17.6255 241.492 18.074 241.857 18.3999C242.221 18.7258 242.695 18.9061 243.186 18.9061C243.676 18.9061 244.15 18.7258 244.514 18.3999C244.879 18.074 245.11 17.6255 245.161 17.141V8.68011C245.161 6.60271 244.332 4.61008 242.854 3.13908C241.377 1.66808 239.373 0.83875 237.281 0.832947Z" fill="url(#paint7_radial_9_2170)"/>
<g style="mix-blend-mode:screen">
<path fill-rule="evenodd" clip-rule="evenodd" d="M86.9521 3.98938C44.4584 3.98938 10.0219 4.49351 10.0219 4.75654C10.0219 5.01957 73.4424 4.99765 86.9521 4.99765C100.462 4.99765 163.86 4.99765 163.86 4.75654C163.86 4.51543 129.424 3.98938 86.9521 3.98938Z" fill="#E2FFC5"/>
</g>
<g style="mix-blend-mode:multiply">
<path fill-rule="evenodd" clip-rule="evenodd" d="M3.88514 70.8217C4.47513 69.9594 5.22413 69.2156 6.09261 68.6298C6.5204 68.3537 7.01738 68.2019 7.52746 68.1914C7.09758 67.9972 6.71745 67.709 6.41548 67.3484C6.1135 66.9878 5.89748 66.5642 5.78356 66.1091C5.88331 66.7707 5.76728 67.4465 5.45244 68.0379C4.84412 68.8851 4.09811 69.6258 3.24497 70.2299C2.80418 70.5229 2.26541 70.6331 1.7439 70.5368C2.29368 71.2435 2.94008 71.8706 3.6644 72.3999C3.536 71.865 3.61479 71.3017 3.88514 70.8217Z" fill="#93E561"/>
</g>
<g style="mix-blend-mode:multiply">
<path fill-rule="evenodd" clip-rule="evenodd" d="M242.137 70.8217C241.535 69.9696 240.788 69.228 239.929 68.6298C239.492 68.3571 238.989 68.2057 238.473 68.1914C238.902 67.9972 239.283 67.709 239.585 67.3484C239.887 66.9878 240.103 66.5642 240.216 66.1091C240.127 66.7705 240.243 67.4432 240.548 68.0379C241.157 68.884 241.903 69.6246 242.755 70.2299C243.188 70.5216 243.72 70.6319 244.234 70.5368C243.69 71.2485 243.043 71.8764 242.314 72.3999C242.387 72.1369 242.408 71.8619 242.374 71.591C242.34 71.3201 242.252 71.0586 242.115 70.8217H242.137Z" fill="#93E561"/>
</g>
<g style="mix-blend-mode:screen">
<path fill-rule="evenodd" clip-rule="evenodd" d="M3.88514 3.20027C4.48686 4.05294 5.2339 4.79473 6.09261 5.39222C6.52497 5.65843 7.01917 5.80945 7.52746 5.83063C7.09382 6.01929 6.71041 6.30566 6.4077 6.66713C6.10498 7.02859 5.89129 7.45515 5.78356 7.91294C5.88501 7.24424 5.76901 6.56088 5.45244 5.96214C4.83842 5.11981 4.09327 4.37987 3.24497 3.77017C2.80197 3.48252 2.26252 3.38013 1.7439 3.48524C2.28172 2.76803 2.92981 2.13929 3.6644 1.62207C3.536 2.15701 3.61479 2.72033 3.88514 3.20027Z" fill="#93E561"/>
</g>
<g style="mix-blend-mode:screen">
<path fill-rule="evenodd" clip-rule="evenodd" d="M242.137 3.20027C241.523 4.0426 240.778 4.78251 239.929 5.39222C239.488 5.65584 238.987 5.8065 238.473 5.83063C238.906 6.01929 239.29 6.30566 239.592 6.66713C239.895 7.02859 240.109 7.45515 240.216 7.91294C240.125 7.24437 240.241 6.56413 240.548 5.96214C241.163 5.12101 241.908 4.38128 242.755 3.77017C242.971 3.62838 243.212 3.53022 243.466 3.48132C243.72 3.43242 243.981 3.43377 244.234 3.48524C243.702 2.76297 243.053 2.13336 242.314 1.62207C242.449 2.15428 242.378 2.71746 242.115 3.20027H242.137Z" fill="#93E561"/>
</g>
<path style="mix-blend-mode:screen" opacity="0.3" fill-rule="evenodd" clip-rule="evenodd" d="M123.132 71.2821C59.8223 71.2821 8.49872 70.208 8.49872 69.66C8.49872 69.112 103.022 69.1559 123.132 69.1559C143.242 69.1559 237.744 69.1559 237.744 69.66C237.744 70.1642 186.42 71.2821 123.132 71.2821Z" fill="url(#paint8_radial_9_2170)"/>
<g style="mix-blend-mode:screen">
<path fill-rule="evenodd" clip-rule="evenodd" d="M223.727 67.6434C219.048 67.4865 214.364 67.7433 209.731 68.4106C214.384 68.822 219.057 68.9684 223.727 68.849C228.404 68.9687 233.084 68.8223 237.744 68.4106C233.104 67.7428 228.413 67.486 223.727 67.6434Z" fill="#C1FF83"/>
</g>
<g style="mix-blend-mode:screen">
<path fill-rule="evenodd" clip-rule="evenodd" d="M199.93 67.8187C196.974 67.7048 194.014 67.9031 191.1 68.4105C194.033 68.7169 196.983 68.8268 199.93 68.7393C202.878 68.8268 205.828 68.7169 208.76 68.4105C205.846 67.9031 202.886 67.7048 199.93 67.8187Z" fill="#C1FF83"/>
</g>
<path style="mix-blend-mode:screen" opacity="0.5" fill-rule="evenodd" clip-rule="evenodd" d="M5.62903 44.7376C37.2841 40.4852 208.164 22.8181 240.614 18.3247V8.68013C240.614 7.86422 240.289 7.08141 239.71 6.50243C239.131 5.92345 238.345 5.59526 237.523 5.58948H8.85193C8.02822 5.59522 7.23989 5.92266 6.65743 6.50103C6.07497 7.07939 5.74517 7.86221 5.73939 8.68013V44.7376H5.62903Z" fill="url(#paint9_linear_9_2170)"/>
<defs>
<linearGradient id="paint0_linear_9_2170" x1="200.57" y1="114.025" x2="46.5245" y2="-41.112" gradientUnits="userSpaceOnUse">
<stop offset="0.0447915" stop-color="#248A00"/>
<stop offset="1" stop-color="#90D400"/>
</linearGradient>
<linearGradient id="paint1_linear_9_2170" x1="196.597" y1="110.079" x2="50.4417" y2="-37.0888" gradientUnits="userSpaceOnUse">
<stop stop-color="#57BA09"/>
<stop offset="1" stop-color="#50E30B"/>
</linearGradient>
<radialGradient id="paint2_radial_9_2170" cx="0" cy="0" r="1" gradientUnits="userSpaceOnUse" gradientTransform="translate(17.6376 -3.02488) scale(226.729 225.136)">
<stop stop-color="#48B009"/>
<stop offset="1" stop-color="#010D01"/>
</radialGradient>
<radialGradient id="paint3_radial_9_2170" cx="0" cy="0" r="1" gradientUnits="userSpaceOnUse" gradientTransform="translate(18.2557 65.5172) scale(233.572 231.93)">
<stop stop-color="white"/>
<stop offset="1" stop-color="#85D600"/>
</radialGradient>
<radialGradient id="paint4_radial_9_2170" cx="0" cy="0" r="1" gradientUnits="userSpaceOnUse" gradientTransform="translate(497.184 17607.5) scale(254.44 2683.54)">
<stop stop-color="#A309B0"/>
<stop offset="0.0001" stop-color="#5DB009"/>
<stop offset="1" stop-color="#010D01"/>
</radialGradient>
<linearGradient id="paint5_linear_9_2170" x1="1470.95" y1="18640.2" x2="1490.3" y2="18640.2" gradientUnits="userSpaceOnUse">
<stop stop-color="white"/>
<stop offset="1" stop-color="#85D600"/>
</linearGradient>
<linearGradient id="paint6_linear_9_2170" x1="3.26705" y1="47.0829" x2="3.26705" y2="2.54267" gradientUnits="userSpaceOnUse">
<stop stop-color="#010D01"/>
<stop offset="1" stop-color="#2AB009"/>
</linearGradient>
<radialGradient id="paint7_radial_9_2170" cx="0" cy="0" r="1" gradientUnits="userSpaceOnUse" gradientTransform="translate(22004.4 11600.7) scale(21148.8 3975.88)">
<stop stop-color="#9909B0"/>
<stop offset="0.0001" stop-color="#3EB009"/>
<stop offset="1" stop-color="#010D01"/>
</radialGradient>
<radialGradient id="paint8_radial_9_2170" cx="0" cy="0" r="1" gradientUnits="userSpaceOnUse" gradientTransform="translate(59791.8 667.295) scale(15181.4 33.4581)">
<stop stop-color="#5DB009"/>
<stop offset="1" stop-color="#010D01"/>
</radialGradient>
<linearGradient id="paint9_linear_9_2170" x1="19401.3" y1="10378.3" x2="44415.4" y2="10378.3" gradientUnits="userSpaceOnUse">
<stop stop-color="#48B009"/>
<stop offset="1" stop-color="#010D01"/>
</linearGradient>
</defs>
</svg>
