<svg width="246" height="74" viewBox="0 0 246 74" fill="none" xmlns="http://www.w3.org/2000/svg">
<path fill-rule="evenodd" clip-rule="evenodd" d="M8.85196 -1.39922e-05H237.28C239.622 -1.39922e-05 241.868 0.923724 243.524 2.568C245.18 4.21228 246.11 6.44243 246.11 8.76779V65.4295C246.11 67.7548 245.18 69.985 243.524 71.6292C241.868 73.2735 239.622 74.1972 237.28 74.1972H8.85196C6.51013 74.1972 4.26422 73.2735 2.60829 71.6292C0.952374 69.985 0.0220947 67.7548 0.0220947 65.4295V8.6801C0.0220947 6.35474 0.952374 4.12461 2.60829 2.48034C4.26422 0.836061 6.51013 -0.087677 8.85196 -0.087677V-1.39922e-05Z" fill="url(#paint0_linear_3_504)"/>
<path fill-rule="evenodd" clip-rule="evenodd" d="M8.85198 5.5237C8.02827 5.52944 7.23994 5.85688 6.65748 6.43525C6.07501 7.01361 5.74522 7.79643 5.73944 8.61435V65.2761C5.74527 66.092 6.07578 66.8724 6.65886 67.4473C7.24194 68.0222 8.03029 68.3448 8.85198 68.3448H237.281C238.1 68.3448 238.886 68.0215 239.466 67.446C240.045 66.8705 240.371 66.09 240.371 65.2761V8.6801C240.371 7.8642 240.046 7.08139 239.467 6.50241C238.888 5.92342 238.102 5.59524 237.281 5.58945L8.85198 5.5237Z" fill="url(#paint1_linear_3_504)"/>
<path style="mix-blend-mode:screen" fill-rule="evenodd" clip-rule="evenodd" d="M8.85193 5.52368H237.281C237.692 5.52362 238.099 5.60501 238.478 5.76309C238.857 5.92117 239.2 6.15279 239.488 6.44433L243.461 2.47688C242.657 1.66758 241.698 1.02583 240.64 0.589233C239.583 0.152631 238.448 -0.0700542 237.303 -0.0657813H8.85193C6.53551 -0.0560963 4.31568 0.857086 2.67102 2.47688L6.64447 6.44433C6.93299 6.15377 7.27661 5.92277 7.65549 5.76476C8.03436 5.60675 8.441 5.52484 8.85193 5.52368Z" fill="url(#paint2_radial_3_504)"/>
<path style="mix-blend-mode:multiply" fill-rule="evenodd" clip-rule="evenodd" d="M237.281 68.4105H8.85193C8.02651 68.4069 7.23487 68.0846 6.64447 67.5118L2.67102 71.4573C4.3121 73.0851 6.53237 74.0064 8.85193 74.0219H237.281C238.427 74.0221 239.562 73.7954 240.62 73.3551C241.677 72.9147 242.636 72.2696 243.439 71.4573L239.466 67.5118C238.877 68.0866 238.084 68.4093 237.258 68.4105H237.281Z" fill="url(#paint3_radial_3_504)"/>
<path style="mix-blend-mode:screen" fill-rule="evenodd" clip-rule="evenodd" d="M5.62904 65.3419V8.68009C5.6261 8.27341 5.70459 7.87018 5.85996 7.49388C6.01533 7.11759 6.24449 6.77573 6.5341 6.48815L2.56067 2.52074C0.929403 4.15383 0.00975339 6.35802 -2.64459e-07 8.65815V65.3199C-0.00430338 66.4571 0.219959 67.5838 0.659653 68.6339C1.09935 69.684 1.74564 70.6365 2.56067 71.4354L6.5341 67.4899C5.95323 66.9063 5.62797 66.1185 5.62904 65.298V65.3419Z" fill="url(#paint4_radial_3_504)"/>
<path style="mix-blend-mode:multiply" fill-rule="evenodd" clip-rule="evenodd" d="M240.371 8.6801V65.3418C240.372 66.1624 240.047 66.9502 239.466 67.5338L243.439 71.4793C244.254 70.6803 244.901 69.7278 245.34 68.6777C245.78 67.6276 246.004 66.501 246 65.3637V8.6801C245.99 6.37996 245.071 4.17574 243.439 2.54265L239.466 6.51009C239.756 6.79768 239.985 7.13953 240.14 7.51583C240.295 7.89212 240.374 8.29535 240.371 8.70204V8.6801Z" fill="url(#paint5_linear_3_504)"/>
<path style="mix-blend-mode:screen" fill-rule="evenodd" clip-rule="evenodd" d="M5.62904 44.7376V8.68009C5.6261 8.27341 5.70459 7.87018 5.85996 7.49388C6.01533 7.11759 6.24449 6.77573 6.5341 6.48815L2.56067 2.52074C0.929403 4.15383 0.00975366 6.35801 0 8.65815V47.1706C1.66189 45.9556 3.59161 45.1515 5.62904 44.8252V44.7376Z" fill="url(#paint6_linear_3_504)"/>
<path style="mix-blend-mode:screen" fill-rule="evenodd" clip-rule="evenodd" d="M237.281 0.832932H8.85195C6.75602 0.832932 4.74593 1.65967 3.26388 3.1313C1.78183 4.60293 0.949219 6.5989 0.949219 8.68009V44.9787C1.00087 45.4632 1.23129 45.9116 1.59607 46.2375C1.96086 46.5634 2.43421 46.7438 2.92491 46.7438C3.41561 46.7438 3.88895 46.5634 4.25373 46.2375C4.61852 45.9116 4.84893 45.4632 4.90059 44.9787V8.68009C4.90059 7.6395 5.31688 6.64153 6.05791 5.90571C6.79893 5.1699 7.80398 4.7565 8.85195 4.7565H237.281C238.325 4.76229 239.324 5.17822 240.06 5.91341C240.797 6.64859 241.21 7.64328 241.21 8.68009V17.141C241.261 17.6255 241.492 18.074 241.857 18.3999C242.221 18.7258 242.695 18.9061 243.186 18.9061C243.676 18.9061 244.15 18.7258 244.514 18.3999C244.879 18.074 245.11 17.6255 245.161 17.141V8.68009C245.161 6.60269 244.332 4.61006 242.854 3.13906C241.377 1.66806 239.373 0.838734 237.281 0.832932Z" fill="url(#paint7_radial_3_504)"/>
<g style="mix-blend-mode:screen">
<path fill-rule="evenodd" clip-rule="evenodd" d="M86.9521 3.98933C44.4584 3.98933 10.0219 4.49346 10.0219 4.75649C10.0219 5.01953 73.4424 4.99761 86.9521 4.99761C100.462 4.99761 163.86 4.99761 163.86 4.75649C163.86 4.51538 129.424 3.98933 86.9521 3.98933Z" fill="#F0C5FF"/>
</g>
<g style="mix-blend-mode:multiply">
<path fill-rule="evenodd" clip-rule="evenodd" d="M3.88514 70.8217C4.47513 69.9593 5.22413 69.2156 6.09261 68.6298C6.5204 68.3537 7.01738 68.2018 7.52746 68.1913C7.09758 67.9971 6.71745 67.7089 6.41548 67.3484C6.1135 66.9878 5.89748 66.5642 5.78356 66.109C5.88331 66.7706 5.76728 67.4465 5.45244 68.0379C4.84412 68.885 4.09811 69.6258 3.24497 70.2298C2.80418 70.5229 2.26541 70.633 1.7439 70.5367C2.29368 71.2435 2.94008 71.8706 3.6644 72.3999C3.536 71.865 3.61479 71.3017 3.88514 70.8217Z" fill="#B361E5"/>
</g>
<g style="mix-blend-mode:multiply">
<path fill-rule="evenodd" clip-rule="evenodd" d="M242.137 70.8217C241.535 69.9696 240.788 69.2279 239.929 68.6298C239.492 68.357 238.989 68.2056 238.473 68.1913C238.902 67.9971 239.283 67.7089 239.585 67.3484C239.887 66.9878 240.103 66.5642 240.216 66.109C240.127 66.7705 240.243 67.4432 240.548 68.0379C241.157 68.884 241.903 69.6246 242.755 70.2298C243.188 70.5216 243.72 70.6319 244.234 70.5367C243.69 71.2485 243.043 71.8764 242.314 72.3999C242.387 72.1369 242.408 71.8619 242.374 71.591C242.34 71.32 242.252 71.0586 242.115 70.8217H242.137Z" fill="#B361E5"/>
</g>
<g style="mix-blend-mode:screen">
<path fill-rule="evenodd" clip-rule="evenodd" d="M3.88514 3.20024C4.48686 4.05291 5.2339 4.7947 6.09261 5.39219C6.52497 5.6584 7.01917 5.80942 7.52746 5.8306C7.09382 6.01926 6.71041 6.30563 6.4077 6.6671C6.10498 7.02856 5.89129 7.45512 5.78356 7.91291C5.88501 7.24421 5.76901 6.56085 5.45244 5.96211C4.83842 5.11978 4.09327 4.37984 3.24497 3.77013C2.80197 3.48248 2.26252 3.3801 1.7439 3.48521C2.28172 2.768 2.92981 2.13926 3.6644 1.62204C3.536 2.15698 3.61479 2.7203 3.88514 3.20024Z" fill="#B361E5"/>
</g>
<g style="mix-blend-mode:screen">
<path fill-rule="evenodd" clip-rule="evenodd" d="M242.137 3.20024C241.523 4.04257 240.778 4.78248 239.929 5.39219C239.488 5.65581 238.987 5.80647 238.473 5.8306C238.906 6.01926 239.29 6.30563 239.592 6.6671C239.895 7.02856 240.109 7.45512 240.216 7.91291C240.125 7.24434 240.241 6.5641 240.548 5.96211C241.163 5.12098 241.908 4.38125 242.755 3.77013C242.971 3.62835 243.212 3.53019 243.466 3.48129C243.72 3.43239 243.981 3.43374 244.234 3.48521C243.702 2.76294 243.053 2.13333 242.314 1.62204C242.449 2.15425 242.378 2.71743 242.115 3.20024H242.137Z" fill="#B361E5"/>
</g>
<path style="mix-blend-mode:screen" opacity="0.3" fill-rule="evenodd" clip-rule="evenodd" d="M123.132 71.282C59.8223 71.282 8.49872 70.208 8.49872 69.66C8.49872 69.112 103.022 69.1558 123.132 69.1558C143.242 69.1558 237.744 69.1559 237.744 69.66C237.744 70.1642 186.42 71.282 123.132 71.282Z" fill="url(#paint8_radial_3_504)"/>
<g style="mix-blend-mode:screen">
<path fill-rule="evenodd" clip-rule="evenodd" d="M223.727 67.6433C219.048 67.4865 214.364 67.7432 209.731 68.4105C214.384 68.8219 219.057 68.9683 223.727 68.8489C228.404 68.9687 233.084 68.8223 237.744 68.4105C233.104 67.7427 228.413 67.486 223.727 67.6433Z" fill="#DF83FF"/>
</g>
<g style="mix-blend-mode:screen">
<path fill-rule="evenodd" clip-rule="evenodd" d="M199.93 67.8187C196.974 67.7047 194.014 67.9031 191.1 68.4105C194.033 68.7169 196.983 68.8267 199.93 68.7393C202.878 68.8267 205.828 68.7169 208.76 68.4105C205.846 67.9031 202.886 67.7047 199.93 67.8187Z" fill="#DF83FF"/>
</g>
<path style="mix-blend-mode:screen" opacity="0.5" fill-rule="evenodd" clip-rule="evenodd" d="M5.62903 44.7376C37.2841 40.4852 208.164 22.8181 240.614 18.3246V8.68009C240.614 7.86419 240.289 7.08138 239.71 6.5024C239.131 5.92342 238.345 5.59523 237.523 5.58945H8.85193C8.02822 5.59519 7.23989 5.92263 6.65743 6.501C6.07497 7.07936 5.74517 7.86218 5.73939 8.68009V44.7376H5.62903Z" fill="url(#paint9_linear_3_504)"/>
<defs>
<linearGradient id="paint0_linear_3_504" x1="200.57" y1="114.025" x2="46.5245" y2="-41.112" gradientUnits="userSpaceOnUse">
<stop stop-color="#8A7400"/>
<stop offset="0.0001" stop-color="#56008A"/>
<stop offset="1" stop-color="#C300D4"/>
</linearGradient>
<linearGradient id="paint1_linear_3_504" x1="196.597" y1="110.079" x2="50.4417" y2="-37.0889" gradientUnits="userSpaceOnUse">
<stop stop-color="#8C09BA"/>
<stop offset="1" stop-color="#D20BE3"/>
</linearGradient>
<radialGradient id="paint2_radial_3_504" cx="0" cy="0" r="1" gradientUnits="userSpaceOnUse" gradientTransform="translate(17.6376 -3.02492) scale(226.729 225.136)">
<stop stop-color="#9909B0"/>
<stop offset="1" stop-color="#010D01"/>
</radialGradient>
<radialGradient id="paint3_radial_3_504" cx="0" cy="0" r="1" gradientUnits="userSpaceOnUse" gradientTransform="translate(18.2557 65.5172) scale(233.572 231.93)">
<stop stop-color="white"/>
<stop offset="1" stop-color="#D6009A"/>
</radialGradient>
<radialGradient id="paint4_radial_3_504" cx="0" cy="0" r="1" gradientUnits="userSpaceOnUse" gradientTransform="translate(497.184 17607.5) scale(254.44 2683.54)">
<stop stop-color="#A309B0"/>
<stop offset="1" stop-color="#010D01"/>
</radialGradient>
<linearGradient id="paint5_linear_3_504" x1="1470.95" y1="18640.2" x2="1490.3" y2="18640.2" gradientUnits="userSpaceOnUse">
<stop stop-color="white"/>
<stop offset="1" stop-color="#C500D6"/>
</linearGradient>
<linearGradient id="paint6_linear_3_504" x1="3.26705" y1="47.0829" x2="3.26705" y2="2.54265" gradientUnits="userSpaceOnUse">
<stop stop-color="#010D01"/>
<stop offset="1" stop-color="#8509B0"/>
</linearGradient>
<radialGradient id="paint7_radial_3_504" cx="0" cy="0" r="1" gradientUnits="userSpaceOnUse" gradientTransform="translate(22004.4 11600.7) scale(21148.8 3975.88)">
<stop stop-color="#9909B0"/>
<stop offset="1" stop-color="#010D01"/>
</radialGradient>
<radialGradient id="paint8_radial_3_504" cx="0" cy="0" r="1" gradientUnits="userSpaceOnUse" gradientTransform="translate(59791.8 667.295) scale(15181.4 33.4581)">
<stop stop-color="#B009A9"/>
<stop offset="1" stop-color="#010D01"/>
</radialGradient>
<linearGradient id="paint9_linear_3_504" x1="19401.3" y1="10378.3" x2="44415.4" y2="10378.3" gradientUnits="userSpaceOnUse">
<stop stop-color="#9909B0"/>
<stop offset="1" stop-color="#010D01"/>
</linearGradient>
</defs>
</svg>
