<svg width="56" height="54" viewBox="0 0 56 54" fill="none" xmlns="http://www.w3.org/2000/svg">
<g clip-path="url(#clip0_3_388)">
<path d="M50.5009 43.1236L42.0706 43.945C42.0706 43.945 42.0511 43.945 42.0446 43.9514L27.3264 45.3888L23.0804 45.8026L16.1011 30.98L6.38524 10.3213C5.90156 8.66901 5.47956 6.99745 5.12897 5.30023L16.2731 5.25531L27.8166 5.20718L42.96 30.518L50.0789 42.421L50.5009 43.1204V43.1236Z" fill="url(#paint0_linear_3_388)"/>
<g style="mix-blend-mode:multiply" opacity="0.5">
<path d="M50.0822 42.4242C47.1119 42.9664 44.5929 43.4445 42.0738 43.945C42.0673 43.945 42.0544 43.945 42.0479 43.9514L27.3296 45.3888C23.2654 40.9099 19.4382 36.1005 16.1043 30.98C11.9427 24.5889 8.5407 17.6973 6.38848 10.3245C5.90479 8.67222 5.48279 7.00066 5.1322 5.30343L16.2764 5.25851C20.3179 5.63068 24.236 5.9419 28.0406 6.22102C32.0918 14.9767 36.789 23.4211 42.96 30.5244L50.0789 42.4274L50.0822 42.4242Z" fill="#149C6E"/>
</g>
<path d="M50.501 43.1237L46.5925 51.5937L19.9056 54L9.49835 33.1007L0 14.027L4.25575 4.81256L5.41464 7.27338L5.74575 7.97922L7.81682 12.3811L13.858 25.221L14.6695 26.9407L15.8382 29.4271L16.7179 31.2976L17.656 33.2868L23.3109 45.3053L26.9888 45.0102L28.2613 44.9075L35.8412 44.3011L43.3171 43.7012L50.501 43.1237Z" fill="url(#paint1_linear_3_388)"/>
<g style="mix-blend-mode:multiply" opacity="0.5">
<path d="M50.501 43.1237L50.0075 44.1247L49.8842 44.3717L48.3747 47.8817L48.1637 47.8015L21.8404 49.8516L2.06458 9.55132L4.25575 4.81256L5.41464 7.27338L5.74575 7.97922L7.81682 12.3811L13.858 25.221L14.6695 26.9407L15.8382 29.4271L16.7179 31.2976L17.656 33.2868L23.3109 45.3053L23.2102 45.5235L27.1381 45.177L28.4074 45.0679L34.8803 44.5L42.8919 43.621L50.501 43.1237Z" fill="#149C6E"/>
</g>
<g style="mix-blend-mode:multiply">
<path d="M49.8874 44.3717H49.8842L46.8328 44.4776L50.0075 44.1247L49.8874 44.3717Z" fill="#14A270"/>
</g>
<path d="M56 40.4479C44.7585 42.4371 40.3274 43.3739 28.9982 45.7096C28.3198 44.9813 27.6478 44.2434 26.9856 43.4926C26.9401 43.4445 26.8979 43.3932 26.8557 43.345C24.7847 41.0158 22.7818 38.5999 20.8827 36.0941C19.6492 34.4803 18.4611 32.8248 17.3249 31.1244C11.6376 22.6703 7.27148 13.3276 5.34973 3.10892C11.8811 3.84363 18.13 4.41151 24.0932 4.88314C24.1646 4.88956 24.2361 4.89598 24.3075 4.89919C25.3755 4.9826 26.4402 5.06602 27.4855 5.14623C27.8296 5.16869 28.1639 5.19436 28.4983 5.22002C31.751 12.2463 35.4192 19.0705 39.9346 25.1632C39.9801 25.2338 40.032 25.298 40.0775 25.3621C43.4957 29.9469 47.3944 34.1081 51.9683 37.6213C53.2537 38.6191 54.5977 39.5592 56 40.4447V40.4479Z" fill="url(#paint2_linear_3_388)"/>
<g style="mix-blend-mode:multiply" opacity="0.5">
<path d="M51.2768 38.8052C40.9409 40.6308 36.2177 41.5933 26.9856 43.4926C26.9401 43.4445 26.8979 43.3932 26.8557 43.345C24.7847 41.0158 22.7818 38.5999 20.8827 36.0941C19.6492 34.4803 18.4611 32.8248 17.3249 31.1244C11.6376 22.6703 7.27148 13.3276 5.34973 3.10892C11.8811 3.84363 18.13 4.41151 24.0932 4.88314C30.5239 18.3166 38.6297 30.8196 51.2768 38.8052Z" fill="#149C6E"/>
</g>
<path d="M53.5524 37.3454C53.0103 37.4416 52.4779 37.5347 51.9682 37.6245C51.2898 37.7464 50.6341 37.8619 50.0011 37.9774C49.1927 38.1218 48.4169 38.2662 47.6735 38.4009C40.3307 39.7452 35.6821 40.7238 26.5506 42.6007C26.4922 42.5365 26.4337 42.4755 26.3785 42.4146C24.4893 40.3805 22.6519 38.2726 20.8827 36.0973C19.5518 34.4739 18.2631 32.8023 17.0263 31.0923C16.627 30.5404 16.231 29.9854 15.8382 29.4239C15.3188 28.6764 14.8059 27.9224 14.3092 27.162C14.0333 26.7417 13.7574 26.3182 13.4912 25.8915C12.7965 24.8007 12.1278 23.6906 11.4818 22.5709C11.4818 22.5709 11.4753 22.5676 11.4753 22.5612C10.8812 21.5378 10.3131 20.4982 9.76454 19.4459C7.40132 14.9061 5.46334 10.1449 4.09345 5.15905C3.62925 3.46503 3.22672 1.74535 2.9021 0C10.9656 0.911176 18.5779 1.56568 25.7812 2.10148C25.8721 2.1079 25.963 2.11431 26.0572 2.12073C26.1481 2.31323 26.2357 2.50573 26.3266 2.69824C26.7096 3.51958 27.0959 4.3345 27.4887 5.14943C27.4985 5.16868 27.5082 5.19114 27.5179 5.21039C27.6803 5.54726 27.8458 5.88414 28.0114 6.21781C28.1574 6.50977 28.3035 6.80494 28.4496 7.0969C31.5595 13.2698 35.0816 19.1828 39.3308 24.451C39.5288 24.698 39.7236 24.9386 39.9249 25.1825C39.9768 25.2434 40.032 25.3076 40.0807 25.3685C43.9144 29.9758 48.339 34.06 53.5524 37.3518V37.3454Z" fill="url(#paint3_linear_3_388)"/>
<g style="mix-blend-mode:multiply">
<path d="M17.5489 36.6877L22.6227 46.7972L33.5331 46.9063L22.1617 47.795L17.5489 36.6877Z" fill="#14A270"/>
</g>
<g style="mix-blend-mode:multiply">
<path d="M48.3553 47.7726L47.956 48.6388L39.8113 49.1361L48.3553 47.7726Z" fill="#14A270"/>
</g>
<g style="mix-blend-mode:multiply">
<path d="M14.2054 33.3734L11.92 28.7277L2.26587 9.12139L2.70086 8.17493L12.0109 28.5641L14.2054 33.3734Z" fill="#14A270"/>
</g>
<g style="mix-blend-mode:multiply">
<path d="M18.4026 46.701L10.5144 31.2623L0.811523 12.2688L1.1686 11.4988L10.6897 30.9479L18.4026 46.701Z" fill="#14A270"/>
</g>
<g style="mix-blend-mode:multiply">
<path d="M3.36957 14.643L20.1881 48.1094L2.77551 11.9672L3.36957 14.643Z" fill="#14A270"/>
</g>
<g style="mix-blend-mode:multiply">
<path d="M18.7208 48.6516L20.7496 52.1744L27.9886 51.6258L20.5938 52.5049L18.7208 48.6516Z" fill="#14A270"/>
</g>
<g style="mix-blend-mode:multiply">
<path d="M22.2039 49.0174L46.7354 47.3298L21.8209 49.8484L22.2039 49.0174Z" fill="#14A270"/>
</g>
<path d="M41.9667 33.906C42.2167 33.3638 42.7588 33.0045 43.4697 32.8376C43.7229 32.7767 43.9956 32.7414 44.2845 32.735C44.4273 32.7318 44.5766 32.735 44.7292 32.7414C44.4111 32.4687 44.0994 32.1895 43.7911 31.9104C37.2143 25.93 32.5008 18.1369 28.6086 9.86574C28.1509 10.363 27.6185 10.6967 27.0829 10.8026C26.833 10.8507 26.5798 10.8507 26.3331 10.793C25.1547 10.5235 24.4632 9.07969 24.5736 7.3568C24.3107 7.33755 24.0477 7.3183 23.7816 7.29905C20.2887 7.04559 16.6789 6.75042 12.9458 6.39429C13.384 8.11076 12.8159 9.77911 11.5596 10.2507C10.9396 10.4817 10.2644 10.3695 9.64764 10.0165C10.8585 14.6911 12.6698 19.1251 14.9162 23.3184C17.8832 28.8625 21.6034 33.983 25.6741 38.6801C26.1805 37.7946 26.9596 37.2203 27.8295 37.2331C29.1507 37.2523 30.1895 38.6159 30.3161 40.3645C35.7048 39.1934 39.1717 38.4491 43.8527 37.5283C42.2881 36.4599 41.4733 34.9872 41.9699 33.906H41.9667ZM24.4503 27.5855C20.9963 26.0263 19.0973 22.8115 20.2107 20.3988C21.3242 17.9893 25.0248 17.2995 28.482 18.8556C31.936 20.4148 33.835 23.6328 32.7248 26.0423C31.6114 28.4518 27.9075 29.1416 24.4535 27.5855H24.4503Z" fill="url(#paint4_linear_3_388)"/>
<path style="mix-blend-mode:screen" opacity="0.4" d="M26.3266 2.69824L25.0736 4.96013L24.9307 5.22001L24.5737 5.8681L24.525 5.95152L23.7816 7.29582L14.913 23.3152L13.858 25.2178L13.7639 25.391L13.608 25.6733L13.4879 25.8915C12.7932 24.8007 12.1245 23.6906 11.4785 22.5709C11.4785 22.5709 11.472 22.5676 11.472 22.5612C10.878 21.5378 10.3099 20.4982 9.76131 19.4459C7.39808 14.9061 5.46011 10.1449 4.09022 5.15905C3.62601 3.46503 3.22348 1.74535 2.89886 0C10.9624 0.911176 18.5747 1.56568 25.778 2.10148C25.8689 2.1079 25.9598 2.11431 26.0539 2.12073C26.1448 2.31323 26.2325 2.50573 26.3234 2.69824H26.3266Z" fill="url(#paint5_linear_3_388)"/>
<g style="mix-blend-mode:multiply" opacity="0.1">
<path d="M53.5524 37.3454C53.0103 37.4416 52.4779 37.5347 51.9683 37.6245C41.8466 39.4244 37.3182 40.3869 26.4889 42.6135C26.4467 42.482 26.4597 42.5269 26.4175 42.3953C36.0132 38.186 39.8535 26.7193 34.6888 17.6845L25.7812 2.10147C25.8721 2.10789 25.963 2.1143 26.0572 2.12072C26.5279 3.13136 27.0051 4.14199 27.4887 5.14942C30.9719 12.3105 34.9582 19.1828 39.9249 25.1792C39.9768 25.2402 40.032 25.3044 40.0807 25.3653C43.9145 29.9725 48.339 34.0568 53.5524 37.3486V37.3454Z" fill="#20A100"/>
</g>
</g>
<defs>
<linearGradient id="paint0_linear_3_388" x1="0.917274" y1="14.4432" x2="52.7114" y2="38.3585" gradientUnits="userSpaceOnUse">
<stop stop-color="#00BC83"/>
<stop offset="1" stop-color="#007160"/>
</linearGradient>
<linearGradient id="paint1_linear_3_388" x1="57.8583" y1="49.9547" x2="8.00192" y2="27.0492" gradientUnits="userSpaceOnUse">
<stop stop-color="#00BC83"/>
<stop offset="1" stop-color="#007160"/>
</linearGradient>
<linearGradient id="paint2_linear_3_388" x1="35.4971" y1="32.3642" x2="51.2193" y2="48.8219" gradientUnits="userSpaceOnUse">
<stop stop-color="#00BC83"/>
<stop offset="1" stop-color="#007160"/>
</linearGradient>
<linearGradient id="paint3_linear_3_388" x1="15.5822" y1="16.2296" x2="71.4911" y2="48.9859" gradientUnits="userSpaceOnUse">
<stop stop-color="#00BC83"/>
<stop offset="1" stop-color="#007160"/>
</linearGradient>
<linearGradient id="paint4_linear_3_388" x1="-6.2919" y1="4.55434" x2="62.0127" y2="45.659" gradientUnits="userSpaceOnUse">
<stop stop-color="#00EE6F"/>
<stop offset="1" stop-color="#00ED9A"/>
</linearGradient>
<linearGradient id="paint5_linear_3_388" x1="12.823" y1="-0.715617" x2="21.3772" y2="19.4624" gradientUnits="userSpaceOnUse">
<stop stop-color="#3EEB00"/>
<stop offset="1"/>
</linearGradient>
<clipPath id="clip0_3_388">
<rect width="56" height="54" fill="white"/>
</clipPath>
</defs>
</svg>
