<svg width="32" height="32" viewBox="0 0 32 32" fill="none" xmlns="http://www.w3.org/2000/svg">
<path d="M1.06694 30.9219C1.59767 31.4531 2.20646 31.7865 2.89328 31.9219C3.58011 32.0573 4.31377 31.9583 5.09426 31.625C5.87475 31.2917 6.62922 30.7292 7.35767 29.9375L14.3508 21.7188L15.2874 22.5938C15.558 22.8438 15.8806 22.9688 16.2552 22.9688C16.6299 22.9688 16.9421 22.8438 17.1918 22.5938C18.503 21.4063 19.757 20.1823 20.9538 18.9219C22.1505 17.6615 23.238 16.4427 24.2162 15.2656C25.1944 14.0885 26.105 12.9271 26.9479 11.7813C27.7908 10.6354 28.5245 9.55729 29.1489 8.54688C29.7733 7.53646 30.304 6.57813 30.7411 5.67188C31.1782 4.76563 31.5008 3.96354 31.7089 3.26563C31.917 2.56771 32.0107 1.96875 31.9899 1.46875C31.9691 0.96875 31.8286 0.598958 31.5684 0.359375C31.3082 0.119792 30.9856 0 30.6006 0C30.2156 0 29.8982 0.114583 29.6484 0.34375L18.0347 11.0625L2.08158 24.625C1.29068 25.3333 0.723528 26.0781 0.380114 26.8594C0.0366974 27.6406 -0.0673676 28.3802 0.0679169 29.0781C0.203203 29.776 0.536211 30.3906 1.06694 30.9219Z" fill="#FFF9F9"/>
</svg>
