<svg width="77" height="132" viewBox="0 0 77 132" fill="none" xmlns="http://www.w3.org/2000/svg">
<path d="M48.2589 74.8295C48.2589 74.8295 48.2555 32.6091 48.2549 24.5668C48.2543 16.5245 44.2337 14.5137 44.2337 0.44083C44.2337 0.44083 30.1639 2.45064 30.1672 24.565C30.1692 41.6139 30.1717 68.7972 30.1717 68.7972C29.0616 68.797 28.1611 69.6966 28.1611 70.8071L28.1627 74.8278L48.2615 74.8288L48.2589 74.8295Z" fill="#DCFCFC"/>
<path d="M27.3905 74.8287L49.0285 74.8294C49.8235 74.8281 50.5837 75.1453 51.1463 75.7073L54.2025 78.7636C54.7262 79.2873 54.1865 80.156 53.4861 79.9229C51.3557 79.2116 49.1247 78.8506 46.8816 78.8506L29.5433 78.8483C27.2976 78.849 25.0681 79.2089 22.9383 79.9198C22.237 80.1535 21.7 79.2813 22.2215 78.761L25.2763 75.7043C25.8379 75.1417 26.6001 74.8258 27.3932 74.828L27.3905 74.8287Z" fill="#F2C664"/>
<path d="M46.2486 78.8484L30.17 78.8469L30.1742 123.079L46.2527 123.08L46.2486 78.8484Z" fill="#E5B27A"/>
<path d="M30.1747 123.081C30.1747 126.413 32.875 129.112 36.2053 129.113L40.2248 129.112C43.5552 129.113 46.2533 126.412 46.2533 123.081L30.1747 123.081Z" fill="#DCFCFC"/>
<path d="M29.5163 74.8286C28.7239 74.8291 27.969 75.1402 27.4073 75.7028L24.3526 78.7595C24.1225 78.99 24.0916 79.3017 24.211 79.5444C23.7798 79.6542 23.357 79.7847 22.9344 79.9266C22.8538 79.9567 22.7735 79.9668 22.7017 79.966C22.1178 79.965 21.756 79.2234 22.2181 78.759L25.2729 75.7023C25.8345 75.1397 26.5895 74.8287 27.3818 74.8281L29.5136 74.8293L29.5163 74.8286Z" fill="#DDA22C"/>
<path d="M46.9027 74.8294C47.6951 74.8289 48.4512 75.1415 49.0137 75.7034L52.07 78.7597C52.3004 78.9899 52.3325 79.3019 52.2112 79.5433C52.6442 79.6534 53.0653 79.7838 53.4867 79.9256C53.5663 79.9558 53.6463 79.9659 53.718 79.9667C54.3019 79.9676 54.6634 79.224 54.2017 78.7609L51.1455 75.7046C50.5829 75.1427 49.8295 74.8294 49.0345 74.8306L46.9027 74.8294Z" fill="#DDA22C"/>
<path d="M41.6575 78.8508L30.1719 88.9032L30.1707 86.8915L39.3541 78.8498L41.6575 78.8508Z" fill="#A37852"/>
<path d="M46.2484 82.8726L46.2489 84.8816L30.1729 98.9546L30.1724 96.9455L46.2484 82.8726Z" fill="#A37852"/>
<path d="M46.2494 92.9239L46.2506 94.9356L30.1746 109.009L30.1735 106.997L46.2494 92.9239Z" fill="#A37852"/>
<path d="M46.2512 102.978L46.2516 104.987L30.173 119.061L30.1745 117.048L46.2512 102.978Z" fill="#A37852"/>
<path d="M46.2523 113.029L46.2534 115.041L37.0674 123.083L34.7667 123.082L46.2523 113.029Z" fill="#A37852"/>
<path opacity="0.33" d="M30.1701 78.8492L30.1746 123.081L46.254 123.083L46.2494 78.8511L30.1701 78.8492ZM38.2131 121.071C34.8827 121.07 32.1825 118.371 32.1824 115.039L32.18 81.9942C32.1808 81.3672 32.6857 80.8598 33.3126 80.8607L43.1059 80.8611C43.7327 80.862 44.24 81.3672 44.2392 81.9942L44.2416 115.039C44.2416 118.371 41.5435 121.071 38.2131 121.071Z" fill="black"/>
<path d="M48.2549 24.5667L48.2547 30.7803L30.1674 42.4185L30.1667 35.2406L48.2336 23.6222C48.2427 23.9232 48.2548 24.2462 48.2549 24.5667Z" fill="white"/>
<path d="M48.2553 37.9469L48.2568 54.6839L30.1702 66.3248L30.168 49.5851L48.2553 37.9469Z" fill="white"/>
<path d="M44.213 0.449186C43.7395 0.710591 36.1934 5.08232 36.195 24.564L36.1949 39.5013L36.1983 66.421C36.1977 67.732 35.135 68.7953 33.8245 68.7944L30.1683 68.7952C30.1683 68.7952 30.1658 41.6119 30.1638 24.563C30.1639 2.96292 43.5878 0.539449 44.213 0.449186Z" fill="#9FBFCE"/>
</svg>
