<svg width="32" height="96" viewBox="0 0 32 96" fill="none" xmlns="http://www.w3.org/2000/svg">
<g clip-path="url(#clip0_9_1286)">
<path d="M15.7554 -1.75881L11.1067 4.44394L9.54958 66.4561L15.7481 66.4552L15.7554 -1.75881Z" fill="#DCFCFC"/>
<path d="M10.6312 23.3248L15.7525 26.6281L21.0438 30.0211L20.8971 24.4027L15.7532 21.0933L10.772 17.8849L10.6312 23.3248Z" fill="white"/>
<path d="M10.1801 41.4728L15.7503 45.0597L21.5074 48.7562L21.1832 35.6419L15.7519 32.154L10.4987 28.7668L10.1801 41.4728Z" fill="white"/>
<path d="M11.0977 68.0053L12.6451 94.3601L18.8437 94.3591L20.3957 68.0029L15.7468 69.5555L11.0977 68.0053Z" fill="#DD6E4B"/>
<path d="M11.095 92.8104C11.0951 90.2415 13.1771 88.1599 15.7448 88.1594C18.3125 88.1588 20.3926 90.2412 20.3925 92.81C20.3924 95.3788 18.3104 97.4605 15.7428 97.461C13.1751 97.4616 11.0949 95.3792 11.095 92.8104Z" fill="#DCFCFC"/>
<path d="M15.7554 -1.75882L20.4048 4.44152L21.9466 66.4543L15.7481 66.4552L15.7554 -1.75882Z" fill="#9FBFCE"/>
<path d="M3.35032 63.3562L4.89907 68.0063L15.7463 71.1048L26.5937 68.0041L28.1444 63.3525L26.595 64.9037L15.7481 66.4553L4.90044 64.9059L3.35032 63.3562Z" fill="#F2C664"/>
<path d="M12.646 92.8088C12.6461 91.0962 14.0351 89.7073 15.7463 89.709C17.4581 89.7086 18.8461 91.0979 18.844 92.8099C18.8439 94.5225 17.4549 95.9114 15.7436 95.9097C14.0318 95.9101 12.6439 94.5208 12.646 92.8088Z" fill="#9FBFCE"/>
<path d="M21.946 69.3298L26.5937 68.0041L28.1444 63.3525L26.595 64.9037L26.0515 64.981L25.0452 68.0041L21.946 69.3298Z" fill="#DDA22C"/>
<path d="M9.5489 69.3315L4.89908 68.0062L3.35032 63.3561L4.90044 64.9058L5.44234 64.9826L6.4496 68.0067L9.5489 69.3315Z" fill="#DDA22C"/>
<path d="M11.3693 72.6552L11.4608 74.2069L20.0306 74.2058L20.1241 72.6551L11.3693 72.6552Z" fill="#934016"/>
<path d="M11.555 75.7572L11.6471 77.3068L19.8443 77.3052L19.9377 75.7544L11.555 75.7572Z" fill="#934016"/>
<path d="M11.7324 78.8569L11.8245 80.4066L19.6661 80.4067L19.7596 78.856L11.7324 78.8569Z" fill="#934016"/>
<path d="M11.9188 81.9567L12.0103 83.5084L19.4798 83.506L19.5727 81.9573L11.9188 81.9567Z" fill="#934016"/>
<path d="M12.0956 85.0586L12.1877 86.6083L19.3016 86.6076L19.395 85.0569L12.0956 85.0586Z" fill="#934016"/>
<path opacity="0.33" d="M15.7464 71.1046L20.2867 69.8009L19.1224 89.6227C18.2781 88.7234 17.0772 88.1588 15.7453 88.1573C14.4129 88.1578 13.2115 88.723 12.3662 89.622L11.2073 69.8023L15.7464 71.1046ZM13.7616 86.9416C14.3979 86.7237 15.064 86.6086 15.7457 86.6081C16.4275 86.6076 17.0933 86.7242 17.73 86.9411L18.5426 73.1405C18.5778 72.532 18.0021 72.071 17.4167 72.2386C16.3271 72.5513 15.1714 72.5506 14.0795 72.2382C13.4936 72.0701 12.9178 72.5316 12.9535 73.1392L13.7622 86.9395L13.7616 86.9416Z" fill="black"/>
</g>
<defs>
<clipPath id="clip0_9_1286">
<rect width="32" height="96" fill="white" transform="matrix(-1 0 0 1 32 0)"/>
</clipPath>
</defs>
</svg>
