<svg width="73" height="126" viewBox="0 0 73 126" fill="none" xmlns="http://www.w3.org/2000/svg">
<g clip-path="url(#clip0_9_1263)">
<path d="M34.8587 68.4662C35.0357 85.2706 33.3091 100.222 33.4098 109.558C33.508 118.893 33.5674 124.496 39.2136 124.462C44.8598 124.427 44.8022 118.827 44.7047 109.49C44.6065 100.154 42.5679 85.2267 42.3891 68.4191C42.2121 51.6147 49.723 49.7018 49.5842 36.6316C49.4066 19.8297 47.368 4.90198 47.368 4.90198L45.487 4.91283L45.8215 36.6558C45.8283 37.3627 45.4323 38.0129 44.7987 38.3311C43.5522 38.9597 42.0719 38.0644 42.057 36.6768L41.7193 4.9357L39.8383 4.94654L40.1836 37.8454C40.1946 38.8768 39.3611 39.7184 38.3214 39.7247C37.2816 39.7309 36.4294 38.9003 36.4184 37.8689L36.0737 4.96758L34.1927 4.97842L34.5273 36.7214C34.5422 38.109 33.078 39.0204 31.8212 38.4084C31.1797 38.0964 30.7714 37.4524 30.7621 36.7449L30.4276 5.00195L28.5466 5.01279C28.5466 5.01279 26.8206 19.9615 26.997 36.7684C27.1358 49.8386 34.6842 51.6624 34.8612 68.4668L34.8587 68.4662Z" fill="#DCFCFC"/>
<path d="M33.4097 109.558C33.5079 118.893 33.5673 124.496 39.2135 124.462C44.8597 124.427 44.8021 118.827 44.7046 109.49C44.696 108.687 44.6781 107.847 44.6405 106.96C44.5382 113.301 43.701 116.965 39.1372 116.993C34.5716 117.019 33.659 113.365 33.4235 107.027C33.4052 107.913 33.4036 108.755 33.4122 109.558L33.4097 109.558Z" fill="#9FBFCE"/>
<path d="M27.059 38.4386C27.2523 41.4815 27.8596 43.8868 28.673 46.0751L44.1459 55.7873C44.7837 53.8319 45.5279 52.1374 46.2461 50.4812L27.059 38.4386Z" fill="white"/>
<path d="M34.8586 68.4661C34.8698 69.6619 34.8754 70.8377 34.8672 72.0152L42.6177 76.8894C42.5048 74.1351 42.4162 71.3076 42.3883 68.4216C42.36 65.8058 42.5145 63.5476 42.806 61.5555L32.5719 55.1256C33.8217 58.4794 34.7957 62.5358 34.8593 68.4636L34.8586 68.4661Z" fill="white"/>
</g>
<defs>
<clipPath id="clip0_9_1263">
<rect width="44.0365" height="118.018" fill="white" transform="matrix(-0.968017 -0.250887 -0.250887 0.968017 72.3836 11.3854)"/>
</clipPath>
</defs>
</svg>
