<svg width="77" height="133" viewBox="0 0 77 133" fill="none" xmlns="http://www.w3.org/2000/svg">
<g filter="url(#filter0_d_9_1017)">
<path d="M31.8727 84.0617C31.8596 92.0473 29.9078 93.75 29.8899 105.372C29.877 113.121 31.8134 120.865 31.8134 120.865L43.5016 120.845C43.5016 120.845 45.461 113.093 45.4739 105.345C45.4918 93.7224 43.5478 92.0272 43.5602 84.0391C43.5653 80.1652 45.5197 76.2872 45.5197 76.2872L29.935 76.3122C29.935 76.3122 31.8765 80.1826 31.8713 84.0565L31.8727 84.0617Z" fill="#DD6E4B"/>
<path d="M26.0476 72.4477L49.4246 72.4102C50.5006 72.4085 51.3709 73.2751 51.369 74.345C51.3672 75.4149 50.4929 76.2831 49.4169 76.2847L26.0399 76.3222C24.9639 76.3239 24.0936 75.4573 24.0955 74.3874C24.0973 73.3175 24.9716 72.4493 26.0476 72.4477Z" fill="#F2C664"/>
<path d="M45.5281 72.4151C45.5281 72.4151 45.5874 35.6116 45.6002 27.8631C45.613 20.1146 43.6766 12.3702 45.6438 0.743705C45.6438 0.743705 30.044 10.4554 30.0078 31.7627C29.9715 53.0699 29.9434 72.4401 29.9434 72.4401L45.5281 72.4151Z" fill="#DCFCFC"/>
<path d="M43.5016 120.845C43.5016 120.845 44.4398 121.779 45.0133 122.998C45.3881 123.796 44.8161 124.716 43.9285 124.716L31.3749 124.737C30.4873 124.738 29.9197 123.82 30.2967 123.022C30.8739 121.801 31.8153 120.862 31.8153 120.862L43.5035 120.842L43.5016 120.845Z" fill="#DCFCFC"/>
<path d="M45.5866 37.0064L45.5602 53.132L29.9562 65.6232L29.9824 49.4866L45.5866 37.0064Z" fill="white"/>
<path d="M45.6002 27.863L45.5974 30.0991L29.9934 42.5903L30.0046 35.6746L45.4681 23.301C45.5527 24.8797 45.6021 26.41 45.6002 27.863Z" fill="white"/>
<path d="M51.3683 74.3424C51.3667 74.8748 51.1526 75.3594 50.7915 75.7097C50.4409 76.0683 49.9516 76.2821 49.4169 76.2848L47.4703 76.2882C48.0057 76.288 48.4949 76.0743 48.8448 75.7131C49.2059 75.3628 49.4201 74.8782 49.4217 74.3458C49.4249 73.2811 48.5481 72.4107 47.4773 72.411L49.4239 72.4076C50.4947 72.4073 51.3709 73.2751 51.3683 74.3424Z" fill="#DDA22C"/>
<path d="M27.9891 76.3182L26.0424 76.3216C24.9716 76.3219 24.0955 75.4542 24.098 74.3868C24.0996 73.8544 24.3138 73.3698 24.6749 73.0195C25.0255 72.6609 25.5147 72.4472 26.0494 72.4445L27.9961 72.441C27.4607 72.4412 26.9714 72.655 26.6215 73.0161C26.2604 73.3664 26.0463 73.851 26.0446 74.3834C26.0414 75.4482 26.9183 76.3185 27.9891 76.3182Z" fill="#DDA22C"/>
<path d="M43.5971 85.9779L31.8309 85.9968C31.8614 85.396 31.8709 84.7485 31.8721 84.0591L43.5603 84.0391C43.5584 84.7259 43.569 85.3763 43.5964 85.9753L43.5971 85.9779Z" fill="#934016"/>
<path d="M44.8854 95.6627L30.5099 95.6861C30.6085 94.9982 30.7177 94.3598 30.8149 93.7495L44.5888 93.7273C44.6858 94.338 44.7905 94.977 44.8887 95.6645L44.8854 95.6627Z" fill="#934016"/>
<path d="M45.4745 105.347L29.8898 105.372C29.8912 104.694 29.9008 104.046 29.9115 103.434L45.4572 103.409C45.4653 104.019 45.4752 104.666 45.4738 105.345L45.4745 105.347Z" fill="#934016"/>
<path d="M44.9841 113.094C44.9051 113.752 44.8267 114.402 44.746 115.032L30.5843 115.056C30.5071 114.427 30.4302 113.777 30.3539 113.12L44.9848 113.097L44.9841 113.094Z" fill="#934016"/>
<path d="M45.6355 0.754148C45.3148 1.15155 35.8862 12.7212 35.8535 31.7536L35.8316 44.3445L35.7931 67.59C35.7922 68.1249 35.3563 68.5587 34.8183 68.5595L29.9485 68.5662L30.0104 31.7619C30.0458 10.7829 45.158 1.05299 45.6355 0.754148Z" fill="#9FBFCE"/>
<path opacity="0.33" d="M45.523 76.289L29.9383 76.314C29.9383 76.314 31.8798 80.1845 31.8746 84.0584C31.8629 92.0491 29.9097 93.7466 29.8918 105.369C29.8789 113.118 31.8153 120.862 31.8153 120.862L43.5035 120.842C43.5035 120.842 45.463 113.09 45.4758 105.341C45.4937 93.7191 43.5504 92.0265 43.5621 84.0358C43.5672 80.1619 45.5216 76.2838 45.5216 76.2838L45.523 76.289ZM42.7722 114.53C42.5745 115.791 41.9415 116.886 41.0341 117.672C40.1265 118.448 38.9479 118.915 37.6614 118.918C35.0988 118.921 32.9399 117.066 32.5648 114.548C32.1703 111.864 31.8342 108.622 31.8391 105.368C31.857 93.7458 33.8102 92.0483 33.822 84.0575C33.8238 82.5218 33.521 80.9878 33.1549 79.694C32.9488 78.9664 33.4966 78.2463 34.2562 78.244L41.1973 78.2336C41.9569 78.2312 42.502 78.9507 42.2948 79.6787C41.9234 80.9744 41.6162 82.5093 41.6143 84.045C41.6026 92.0358 43.5459 93.7283 43.5279 105.351C43.5231 108.604 43.1777 111.85 42.7729 114.533L42.7722 114.53Z" fill="black"/>
</g>
<defs>
<filter id="filter0_d_9_1017" x="20.0955" y="0.743713" width="35.2736" height="131.993" filterUnits="userSpaceOnUse" color-interpolation-filters="sRGB">
<feFlood flood-opacity="0" result="BackgroundImageFix"/>
<feColorMatrix in="SourceAlpha" type="matrix" values="0 0 0 0 0 0 0 0 0 0 0 0 0 0 0 0 0 0 127 0" result="hardAlpha"/>
<feOffset dy="4"/>
<feGaussianBlur stdDeviation="2"/>
<feComposite in2="hardAlpha" operator="out"/>
<feColorMatrix type="matrix" values="0 0 0 0 0 0 0 0 0 0 0 0 0 0 0 0 0 0 0.25 0"/>
<feBlend mode="normal" in2="BackgroundImageFix" result="effect1_dropShadow_9_1017"/>
<feBlend mode="normal" in="SourceGraphic" in2="effect1_dropShadow_9_1017" result="shape"/>
</filter>
</defs>
</svg>
