<svg width="72" height="130" viewBox="0 0 72 130" fill="none" xmlns="http://www.w3.org/2000/svg">
<g clip-path="url(#clip0_9_1268)">
<path d="M39.6435 73.6015L39.6383 67.7191C39.6383 67.7191 41.6142 54.0028 41.6032 38.3136C41.5908 18.7023 33.6398 1.00413 33.6398 1.00413C33.6398 1.00413 25.713 18.6038 25.7255 38.2151C25.7365 53.9043 27.7304 67.6439 27.7304 67.6439L27.7355 73.5263L39.6435 73.6015Z" fill="#DCFCFC"/>
<path d="M25.9299 32.6769L41.5559 42.7079C41.5841 41.2669 41.6035 39.7957 41.6025 38.3161C41.6016 37.4422 41.5801 36.5711 41.5512 35.7064L26.6391 26.1424C26.3318 28.2586 26.0875 30.4448 25.9292 32.6795L25.9299 32.6769Z" fill="white"/>
<path d="M25.7374 39.5496C25.7821 45.7665 26.1227 51.6225 26.5139 56.3618L39.9859 65.0053C40.3602 61.869 40.9535 56.2744 41.306 49.5316L25.7401 39.5504L25.7374 39.5496Z" fill="white"/>
<path d="M39.649 81.4461C39.6541 87.3284 41.6414 91.2637 41.6473 101.071C41.6539 110.875 39.6714 114.787 39.6755 118.71C39.6763 120.357 40.0248 122.006 40.4329 123.361C40.9106 124.961 39.6896 126.554 38.0029 126.543L29.4484 126.489C27.7618 126.479 26.5388 124.872 27.0157 123.279C27.421 121.929 27.7677 120.284 27.7668 118.637C27.7654 114.715 25.7781 110.78 25.7688 100.975C25.7623 91.1704 27.7448 87.2585 27.7396 81.3761C27.7387 80.8679 27.7382 77.4541 27.7382 77.4541L39.6461 77.5293C39.6461 77.5293 39.647 80.4715 39.6476 81.4513L39.649 81.4461ZM33.7219 122.592C34.8129 122.598 35.7063 121.723 35.7048 120.643C35.7026 119.565 34.8114 118.676 33.7179 118.67C32.6269 118.664 31.7335 119.539 31.735 120.619C31.7373 121.697 32.6284 122.586 33.7219 122.592Z" fill="#DD6E4B"/>
<path d="M27.465 85.293L39.9297 85.3711C39.839 84.7241 39.7715 84.075 39.7314 83.4082L27.6653 83.3321C27.6259 83.9996 27.5584 84.6456 27.4684 85.2911L27.465 85.293Z" fill="#934016"/>
<path d="M26.5176 91.1713L40.8868 91.2602C40.7762 90.5715 40.6683 89.9254 40.558 89.2982L26.8442 89.2138C26.7366 89.8406 26.6268 90.4863 26.5169 91.1739L26.5176 91.1713Z" fill="#934016"/>
<path d="M25.8866 97.0515L41.5267 97.1498C41.4863 96.4634 41.4353 95.816 41.376 95.1887L26.0351 95.0933C25.9759 95.7192 25.9276 96.3676 25.8885 97.0548L25.8866 97.0515Z" fill="#934016"/>
<path d="M25.7695 100.972C25.7704 101.648 25.7815 102.307 25.801 102.934L41.6192 103.034C41.6394 102.405 41.6474 101.749 41.6466 101.073L25.7688 100.975L25.7695 100.972Z" fill="#934016"/>
<path d="M26.0401 106.857C26.1002 107.554 26.1797 108.201 26.2609 108.82L41.1669 108.912C41.2465 108.294 41.3252 107.649 41.3836 106.953L26.0427 106.857L26.0401 106.857Z" fill="#934016"/>
<path d="M26.9091 112.747C27.0374 113.443 27.1784 114.093 27.2967 114.711L40.1374 114.79C40.2567 114.172 40.395 113.526 40.5236 112.832L26.9091 112.747Z" fill="#934016"/>
<path opacity="0.33" d="M27.7649 118.634C27.7634 114.712 25.7761 110.776 25.7669 100.971C25.7603 91.167 27.7428 87.2551 27.7377 81.3727L27.7341 77.5004C27.7336 77.4501 27.7326 75.4904 27.7326 75.4904L39.6405 75.5656C39.6405 75.5656 39.6409 77.5279 39.6421 77.5756L39.6457 81.4479C39.6508 87.3303 41.6381 91.2656 41.644 101.072C41.6505 110.877 39.6681 114.789 39.6721 118.711C39.673 120.358 40.0214 122.008 40.4296 123.363C40.7181 124.345 40.3823 125.323 39.678 125.928C39.2413 126.318 38.6549 126.55 38.0022 126.546L29.4477 126.492C28.7924 126.487 28.2065 126.248 27.77 125.853C27.0644 125.24 26.7276 124.259 27.013 123.278C27.4184 121.928 27.765 120.283 27.7642 118.636L27.7649 118.634ZM33.7793 124.553C36.1939 124.54 37.9972 122.355 37.7554 119.978C37.712 119.554 37.6866 119.125 37.687 118.695C37.688 118.107 37.7368 117.509 37.8136 116.902C38.2386 113.464 39.6644 109.381 39.6588 101.057C39.6522 91.2522 37.6649 87.317 37.6605 81.432L37.6586 80.6974C37.6587 80.1643 37.163 79.7481 36.6325 79.8472C35.4472 80.0648 34.74 80.356 34.3236 80.6395C33.9355 80.8916 33.441 80.8889 33.0527 80.6301C32.635 80.3439 31.9269 80.0432 30.7417 79.8114C30.2098 79.7063 29.7172 80.1144 29.7164 80.65L29.7183 81.3846C29.7234 87.267 27.7409 91.1789 27.7475 100.983C27.7531 109.308 29.1843 113.405 29.6146 116.852C29.6934 117.459 29.7431 118.059 29.7448 118.648C29.7444 119.078 29.7214 119.507 29.6775 119.931C29.4394 122.303 31.2457 124.514 33.6601 124.554C33.68 124.554 33.6965 124.556 33.7163 124.556C33.7362 124.555 33.7534 124.555 33.7726 124.557L33.7793 124.553Z" fill="black"/>
<path d="M33.588 28.4573L33.7272 28.4581C34.2366 28.4613 34.6499 28.8719 34.6502 29.3753L34.6744 64.8133C34.6747 65.3167 34.262 65.7222 33.7526 65.719L33.6134 65.7181C33.104 65.7149 32.6908 65.3043 32.6904 64.8009L32.6663 29.363C32.6659 28.8596 33.0786 28.4541 33.588 28.4573Z" fill="#9FBFCE"/>
<path d="M33.6439 4.92671C33.6439 4.92671 39.6109 22.6149 39.6193 38.3035C39.6303 53.9927 37.6544 67.709 37.6544 67.709L39.6376 67.7216C39.6376 67.7216 41.6136 54.0053 41.6025 38.3161C41.5908 18.7022 33.6398 1.00404 33.6398 1.00404L33.6413 4.926L33.6439 4.92671Z" fill="white"/>
<path d="M33.6439 4.92676C33.6439 4.92676 27.703 22.5398 27.7113 38.2283C27.7224 53.9176 29.7162 67.6572 29.7162 67.6572L27.733 67.6446C27.733 67.6446 25.7391 53.905 25.7281 38.2157C25.713 18.6038 33.6398 1.00409 33.6398 1.00409L33.6412 4.92605L33.6439 4.92676Z" fill="white"/>
<path d="M33.6904 73.5655C19.7986 73.4803 19.7956 71.5173 19.7956 71.5173C19.7956 71.5173 19.8007 77.3996 25.753 77.4382C31.2817 77.4736 32.9601 78.4335 33.4703 79.0155C33.5873 79.1477 33.7991 79.1493 33.9138 79.0185C34.423 78.4447 36.1014 77.5039 41.6301 77.5393C47.5831 77.5752 47.5806 71.6936 47.5806 71.6936C47.5806 71.6936 47.5816 73.6532 33.6897 73.5681L33.6904 73.5655Z" fill="#F2C664"/>
<path d="M39.6454 77.5738C40.2496 77.5477 40.9046 77.5325 41.6307 77.5367C45.9672 77.5645 47.147 74.4427 47.4619 72.7584C47.5809 72.1207 47.5813 71.691 47.5813 71.691C47.5813 71.691 47.5827 72.2496 45.4786 72.7458C45.4582 72.863 45.4295 73.0004 45.4007 73.1377C44.9737 74.8809 43.8161 77.3361 39.648 77.5745L39.6454 77.5738Z" fill="#DDA22C"/>
<path d="M27.7374 77.4986C27.1322 77.4658 26.4765 77.4417 25.753 77.4382C21.4165 77.4104 20.2337 74.2765 19.9157 72.5882C19.7971 71.9504 19.7955 71.5173 19.7955 71.5173C19.7955 71.5173 19.797 72.0759 21.8997 72.5982C21.9189 72.7151 21.9491 72.8544 21.98 72.9912C22.4088 74.7402 23.5707 77.2098 27.7374 77.4986Z" fill="#DDA22C"/>
</g>
<defs>
<clipPath id="clip0_9_1268">
<rect width="39.8196" height="122.303" fill="white" transform="matrix(-0.965199 -0.261515 -0.261515 0.965199 71.2089 11.1832)"/>
</clipPath>
</defs>
</svg>
