<svg width="31" height="110" viewBox="0 0 31 110" fill="none" xmlns="http://www.w3.org/2000/svg">
<path fill-rule="evenodd" clip-rule="evenodd" d="M15.7817 100.308C15.4462 100.611 15.1663 100.967 14.9537 101.359C14.1959 101.3 13.4343 101.3 12.6766 101.359C12.6518 100.977 12.5477 100.603 12.3702 100.26C12.5951 99.9749 12.8474 99.7102 13.1237 99.4696C13.5129 99.3984 14.2747 99.3194 15.0779 99.2561C15.3874 99.3361 15.683 99.4586 15.9556 99.6198C15.8154 99.8167 15.7537 100.055 15.7817 100.292V100.308Z" fill="url(#paint0_radial_9_864)"/>
<path fill-rule="evenodd" clip-rule="evenodd" d="M15.9556 99.6356C15.683 99.4745 15.3874 99.3519 15.0779 99.2719C15.9032 99.1934 16.7333 99.1696 17.562 99.2008C17.8496 99.3457 18.1262 99.5095 18.3901 99.6909H18.2162C17.525 99.5707 16.8239 99.5098 16.1213 99.5091C16.0558 99.526 15.9959 99.5587 15.9474 99.604L15.9556 99.6356Z" fill="url(#paint1_radial_9_864)"/>
<path fill-rule="evenodd" clip-rule="evenodd" d="M15.9556 99.6356C16.0042 99.5903 16.064 99.5576 16.1295 99.5407C16.8321 99.5414 17.5333 99.6023 18.2245 99.7226C17.9192 99.7822 17.6179 99.8587 17.3219 99.9518C16.8756 99.8132 16.4188 99.7075 15.9556 99.6356Z" fill="url(#paint2_radial_9_864)"/>
<path style="mix-blend-mode:multiply" fill-rule="evenodd" clip-rule="evenodd" d="M13.3059 101.043C13.8196 101.142 14.3489 101.142 14.8626 101.043C15.0136 100.984 15.1603 100.915 15.3015 100.837C15.166 101.004 15.0495 101.185 14.9537 101.375C14.1959 101.316 13.4343 101.316 12.6766 101.375C12.6518 100.993 12.5477 100.619 12.3702 100.276C12.5951 99.9907 12.8474 99.726 13.1237 99.4854C13.5129 99.4142 14.2747 99.3352 15.0779 99.2719C15.3874 99.3519 15.683 99.4744 15.9556 99.6356C15.904 99.7025 15.8648 99.7774 15.8397 99.857C15.7381 99.6514 15.5615 99.4884 15.3429 99.3984C14.5647 99.3032 13.7739 99.404 13.0492 99.6909C12.9264 99.7632 12.8214 99.86 12.7413 99.9746C12.6613 100.089 12.6082 100.219 12.5855 100.355C12.6433 100.514 12.7382 100.659 12.863 100.778C12.9877 100.897 13.1392 100.988 13.3059 101.043Z" fill="url(#paint3_radial_9_864)"/>
<path fill-rule="evenodd" clip-rule="evenodd" d="M13.1734 99.8412C12.5 100.414 11.9538 101.111 11.567 101.889C11.448 102.574 11.3843 103.266 11.3766 103.96C11.4622 104.364 11.5728 104.763 11.7078 105.154C12.58 106.454 13.6423 107.628 14.8626 108.641C15.2122 108.835 15.5777 109.001 15.9556 109.139C16.0548 109.147 16.1546 109.147 16.2537 109.139C16.6143 108.786 17.0079 108.466 17.4296 108.182C18.4075 107.039 19.288 105.823 20.0627 104.545C20.0133 103.773 20.0382 102.997 20.1373 102.229C19.7253 101.435 19.2106 100.694 18.6054 100.023C18.3207 99.845 18.0248 99.684 17.7194 99.5407C16.1978 99.515 14.6768 99.6155 13.1734 99.8412Z" fill="url(#paint4_radial_9_864)"/>
<path fill-rule="evenodd" clip-rule="evenodd" d="M14.4155 105.945C14.9158 107.057 15.7123 108.024 16.7257 108.751L16.2869 109.154C16.1877 109.163 16.0879 109.163 15.9888 109.154C15.6109 109.017 15.2453 108.85 14.8957 108.656C13.6754 107.644 12.6131 106.47 11.7409 105.17C12.6947 105.175 13.6253 105.45 14.4155 105.96V105.945Z" fill="url(#paint5_radial_9_864)"/>
<path fill-rule="evenodd" clip-rule="evenodd" d="M14.4155 105.945C13.6253 105.435 12.6947 105.159 11.7409 105.154C11.606 104.763 11.4954 104.364 11.4097 103.96C11.4175 103.266 11.4812 102.574 11.6002 101.889C11.7677 102.007 11.9516 102.103 12.1467 102.173C12.9965 103.189 13.7924 104.244 14.5314 105.336C14.5333 105.544 14.4939 105.75 14.4155 105.945Z" fill="url(#paint6_radial_9_864)"/>
<path fill-rule="evenodd" clip-rule="evenodd" d="M16.7257 108.751C15.7123 108.024 14.9158 107.057 14.4155 105.945C14.4939 105.75 14.5333 105.544 14.5314 105.336C14.6805 105.573 14.8295 105.818 14.962 106.063L15.6161 107.099C15.7287 107.258 15.872 107.395 16.0384 107.502C16.4808 107.79 16.9593 108.024 17.4627 108.198C17.2057 108.368 16.9596 108.553 16.7257 108.751Z" fill="url(#paint7_radial_9_864)"/>
<path fill-rule="evenodd" clip-rule="evenodd" d="M17.4627 108.198C16.9593 108.024 16.4809 107.79 16.0385 107.502C16.0975 107.43 16.1501 107.353 16.1958 107.273C16.3042 106.994 16.3955 106.708 16.4691 106.419C16.8412 106.713 17.2606 106.948 17.7111 107.115C17.607 107.471 17.5241 107.833 17.4627 108.198Z" fill="url(#paint8_radial_9_864)"/>
<path fill-rule="evenodd" clip-rule="evenodd" d="M16.4856 106.419C16.412 106.708 16.3208 106.994 16.2124 107.273C16.1667 107.353 16.1141 107.43 16.055 107.502C15.8886 107.395 15.7452 107.258 15.6327 107.099L14.9785 106.063C14.8461 105.818 14.697 105.573 14.548 105.336C13.809 104.244 13.013 103.189 12.1632 102.173C12.3757 102.034 12.5777 101.881 12.7677 101.715C13.5448 101.656 14.3256 101.656 15.1028 101.715C15.5842 102.073 16.0107 102.493 16.3697 102.964V103.004C16.5519 103.652 16.682 104.313 16.7588 104.98C16.7016 105.468 16.6075 105.952 16.4773 106.427L16.4856 106.419Z" fill="url(#paint9_radial_9_864)"/>
<path fill-rule="evenodd" clip-rule="evenodd" d="M17.7111 107.115C17.2606 106.948 16.8412 106.713 16.469 106.419C16.5992 105.944 16.6933 105.46 16.7506 104.972C17.1978 105.354 17.7032 105.668 18.2493 105.905C18.0425 106.297 17.8627 106.701 17.7111 107.115Z" fill="url(#paint10_radial_9_864)"/>
<path fill-rule="evenodd" clip-rule="evenodd" d="M17.7111 107.115C17.8627 106.701 18.0425 106.297 18.2493 105.905C18.8972 105.335 19.5083 104.727 20.0793 104.087C20.0793 104.245 20.0793 104.403 20.0793 104.561C19.3045 105.838 18.424 107.055 17.4461 108.198C17.5075 107.833 17.5904 107.471 17.6945 107.115H17.7111Z" fill="url(#paint11_radial_9_864)"/>
<path fill-rule="evenodd" clip-rule="evenodd" d="M18.2493 105.905C17.7032 105.668 17.1979 105.354 16.7506 104.972C16.6738 104.305 16.5437 103.644 16.3614 102.996C16.5894 102.729 16.7787 102.433 16.9245 102.118C17.0459 101.49 17.249 100.879 17.5289 100.3C17.827 100.213 18.1334 100.134 18.4563 100.07C18.5395 100.537 18.7385 100.978 19.0367 101.356C19.3349 101.735 19.7236 102.039 20.1704 102.245C20.0909 102.855 20.0604 103.471 20.0793 104.087C19.5083 104.727 18.8972 105.335 18.2493 105.905Z" fill="url(#paint12_radial_9_864)"/>
<path fill-rule="evenodd" clip-rule="evenodd" d="M16.9244 102.118C16.7787 102.433 16.5894 102.729 16.3614 102.996V102.956C16.0024 102.485 15.5759 102.065 15.0945 101.707C15.3049 101.316 15.5851 100.963 15.9225 100.663C15.8961 100.424 15.9576 100.184 16.0964 99.9835C16.5724 100.059 17.0426 100.165 17.5041 100.3C17.2241 100.879 17.021 101.49 16.8996 102.118H16.9244Z" fill="url(#paint13_radial_9_864)"/>
<path fill-rule="evenodd" clip-rule="evenodd" d="M12.4365 100.632C12.6144 100.975 12.7212 101.348 12.7511 101.731C12.5612 101.897 12.3592 102.05 12.1467 102.189C11.9516 102.119 11.7677 102.023 11.6002 101.905C11.8133 101.446 12.0919 101.017 12.4282 100.632H12.4365Z" fill="url(#paint14_radial_9_864)"/>
<path fill-rule="evenodd" clip-rule="evenodd" d="M20.1704 102.213C19.7236 102.008 19.3349 101.703 19.0367 101.325C18.7384 100.946 18.5395 100.506 18.4563 100.039H18.6385C19.2438 100.71 19.7584 101.451 20.1704 102.245V102.213Z" fill="url(#paint15_radial_9_864)"/>
<path style="mix-blend-mode:screen" fill-rule="evenodd" clip-rule="evenodd" d="M14.5811 102.213C13.7116 102.023 12.8588 102.442 12.925 102.948C12.9572 103.111 13.0072 103.27 13.074 103.423L12.1466 102.213C12.3591 102.074 12.5611 101.921 12.7511 101.754C13.5282 101.695 14.3091 101.695 15.0862 101.754C15.5676 102.112 15.9941 102.533 16.3531 103.004C16.5353 103.652 16.6655 104.313 16.7423 104.98C16.701 105.344 16.6374 105.706 16.5518 106.063C16.6692 105.342 16.6155 104.604 16.3945 103.905C16.265 103.496 16.0306 103.124 15.7125 102.823C15.3944 102.522 15.0027 102.301 14.5728 102.181L14.5811 102.213Z" fill="url(#paint16_radial_9_864)"/>
<path style="mix-blend-mode:multiply" opacity="0.5" fill-rule="evenodd" clip-rule="evenodd" d="M17.5538 105.304C17.7687 105.41 18.0132 105.449 18.2525 105.415C18.4918 105.381 18.7138 105.276 18.8869 105.114C19.3637 104.852 19.7255 104.434 19.9064 103.938C20.0873 103.441 20.0752 102.899 19.8723 102.411C19.7729 102.15 19.0443 101.573 18.7958 101.011C19.0997 101.555 19.5827 101.989 20.1704 102.245C20.0909 102.855 20.0604 103.471 20.0793 104.087C19.5083 104.727 18.8972 105.335 18.2493 105.905C17.7032 105.668 17.1979 105.354 16.7506 104.972C16.6738 104.305 16.5437 103.644 16.3614 102.996C16.5434 102.784 16.6991 102.554 16.8251 102.308C16.7228 102.562 16.656 102.828 16.6264 103.098C16.6304 103.71 16.7716 104.314 17.0404 104.869C17.1853 105.032 17.3591 105.168 17.5538 105.273V105.304Z" fill="url(#paint17_radial_9_864)"/>
<path fill-rule="evenodd" clip-rule="evenodd" d="M15.9474 100.632C16.4138 101.016 16.7532 101.521 16.9244 102.086C16.7787 102.402 16.5894 102.697 16.3614 102.964V102.924C16.0024 102.453 15.5759 102.033 15.0945 101.675C15.3049 101.284 15.5851 100.931 15.9225 100.632H15.9474Z" fill="url(#paint18_radial_9_864)"/>
<path style="mix-blend-mode:multiply" fill-rule="evenodd" clip-rule="evenodd" d="M12.983 105.312C13.604 105.391 13.9849 105.352 13.7531 104.672C13.4649 103.827 12.8798 103.104 12.097 102.624C11.9881 102.563 11.8583 102.545 11.7359 102.575C11.6135 102.605 11.5082 102.679 11.4428 102.782C11.4569 102.482 11.4985 102.183 11.567 101.889C11.7345 102.007 11.9184 102.103 12.1135 102.173L13.0741 103.383C13.585 104.009 14.0604 104.661 14.4983 105.336C14.5001 105.544 14.4608 105.75 14.3824 105.945C13.94 105.668 13.4573 105.455 12.9499 105.312H12.983Z" fill="url(#paint19_radial_9_864)"/>
<path style="mix-blend-mode:screen" fill-rule="evenodd" clip-rule="evenodd" d="M13.0658 101.699C13.6993 101.666 14.3347 101.695 14.962 101.786C15.3181 101.857 15.9308 102.577 16.1875 103.027C16.4663 103.648 16.6558 104.303 16.7506 104.972C16.7524 104.289 16.6463 103.609 16.4359 102.956C16.5637 102.816 16.6646 102.655 16.734 102.482C16.6541 102.593 16.5458 102.683 16.4194 102.743C16.1875 102.743 15.434 101.905 15.2518 101.66C15.3138 101.434 15.4206 101.222 15.5665 101.035C15.3627 101.221 15.1744 101.422 15.0034 101.636C14.3568 101.614 13.7093 101.635 13.0658 101.699Z" fill="url(#paint20_radial_9_864)"/>
<path style="mix-blend-mode:screen" fill-rule="evenodd" clip-rule="evenodd" d="M13.1734 105.375C13.5863 105.517 13.9661 105.735 14.2913 106.016C14.5443 106.387 14.7579 106.782 14.9288 107.194C15.3012 107.666 15.7548 108.075 16.2703 108.403C15.7922 107.915 15.3626 107.386 14.9868 106.822C14.8187 106.584 14.6719 106.333 14.548 106.071C14.5076 105.981 14.4851 105.884 14.4817 105.786C14.4378 105.793 14.3931 105.793 14.3492 105.786C14.2085 105.786 14.0263 105.62 13.9104 105.573C13.6714 105.486 13.4248 105.42 13.1734 105.375Z" fill="url(#paint21_radial_9_864)"/>
<path style="mix-blend-mode:screen" fill-rule="evenodd" clip-rule="evenodd" d="M16.2123 107.225C16.3034 106.893 16.4193 106.561 16.5104 106.229C16.6015 105.897 16.6181 105.763 16.6678 105.533C16.6678 105.889 16.4939 106.324 16.8002 106.577C16.9079 106.68 17.0404 106.767 17.1563 106.87C16.9877 106.758 16.8 106.675 16.6015 106.624C16.5751 106.625 16.5495 106.633 16.5275 106.647C16.5056 106.661 16.4882 106.681 16.4773 106.704C16.3697 106.877 16.3034 107.051 16.2123 107.225Z" fill="url(#paint22_radial_9_864)"/>
<path style="mix-blend-mode:screen" fill-rule="evenodd" clip-rule="evenodd" d="M12.3454 106C12.975 106.361 13.6593 106.628 14.3741 106.791C14.8092 107.463 15.3261 108.084 15.9142 108.641C15.9999 108.796 16.029 108.974 15.997 109.147C15.6192 109.009 15.2536 108.843 14.904 108.648C13.9589 107.854 13.1015 106.969 12.3454 106.008V106Z" fill="url(#paint23_radial_9_864)"/>
<path style="mix-blend-mode:screen" d="M16.469 107.613C18.5635 107.613 20.2614 105.992 20.2614 103.992C20.2614 101.992 18.5635 100.371 16.469 100.371C14.3745 100.371 12.6766 101.992 12.6766 103.992C12.6766 105.992 14.3745 107.613 16.469 107.613Z" fill="url(#paint24_radial_9_864)"/>
<path style="mix-blend-mode:screen" d="M12.7594 103.098C13.4636 103.098 14.0346 102.553 14.0346 101.881C14.0346 101.208 13.4636 100.663 12.7594 100.663C12.0551 100.663 11.4842 101.208 11.4842 101.881C11.4842 102.553 12.0551 103.098 12.7594 103.098Z" fill="url(#paint25_radial_9_864)"/>
<path fill-rule="evenodd" clip-rule="evenodd" d="M16.4856 100.276C16.229 100.11 15.9506 99.9771 15.6575 99.8807C16.4654 99.8661 17.2734 99.9057 18.0754 99.9993C18.3652 100.143 18.6422 100.31 18.9035 100.497H18.7296C18.0602 100.342 17.3792 100.236 16.6926 100.181C16.6297 100.196 16.5706 100.223 16.5187 100.26L16.4856 100.276Z" fill="#9C679F"/>
<path fill-rule="evenodd" clip-rule="evenodd" d="M16.4856 100.276C16.5375 100.239 16.5966 100.212 16.6595 100.197C17.3461 100.252 18.0271 100.357 18.6965 100.513C18.3901 100.553 18.0837 100.6 17.7939 100.663C17.3687 100.503 16.9313 100.373 16.4856 100.276Z" fill="#B580B8"/>
<path fill-rule="evenodd" clip-rule="evenodd" d="M12.6021 96.8843H18.9697C18.9697 97.4535 19.0443 98.0386 19.0857 98.6394C19.1271 99.2403 19.1685 99.8806 19.2099 100.529C19.2099 100.734 18.8538 100.932 18.2328 101.074C16.6144 101.38 14.9491 101.38 13.3308 101.074C12.7097 100.932 12.3371 100.734 12.3537 100.529C12.3951 99.8806 12.4365 99.2482 12.4779 98.6394C12.5193 98.0306 12.5524 97.4535 12.5938 96.8843H12.6021Z" fill="url(#paint26_linear_9_864)"/>
<path style="mix-blend-mode:multiply" fill-rule="evenodd" clip-rule="evenodd" d="M12.9333 100.774C12.9747 100.078 13.0078 99.4063 13.0492 98.7501C13.0906 98.0939 13.1155 97.493 13.1486 96.8843H12.6021C12.5607 97.4535 12.5276 98.0386 12.4862 98.6394C12.4448 99.2403 12.4033 99.8807 12.3619 100.529C12.3619 100.695 12.5938 100.861 13.0161 100.987C12.9624 100.928 12.933 100.852 12.9333 100.774Z" fill="url(#paint27_linear_9_864)"/>
<path style="mix-blend-mode:multiply" fill-rule="evenodd" clip-rule="evenodd" d="M17.6945 96.8843C17.6945 97.493 17.7442 98.1097 17.769 98.7501C17.7939 99.3905 17.8187 100.078 17.8436 100.774C17.8436 100.932 17.7028 101.082 17.4461 101.209C17.8892 101.161 18.3253 101.065 18.7461 100.924C19.0525 100.806 19.2347 100.671 19.2181 100.529C19.1767 99.8807 19.1353 99.2482 19.0939 98.6394C19.0525 98.0307 19.0111 97.4535 18.978 96.8843H17.6945Z" fill="url(#paint28_linear_9_864)"/>
<path style="mix-blend-mode:screen" fill-rule="evenodd" clip-rule="evenodd" d="M13.6454 96.8843C13.6454 97.5326 13.5792 98.2125 13.5543 98.9003C13.5295 99.5881 13.4881 100.347 13.455 101.098C13.7116 101.154 14.0097 101.193 14.3327 101.233C14.6556 101.272 15.0034 101.288 15.376 101.296C15.376 100.505 15.376 99.7146 15.376 98.9952C15.376 98.2757 15.376 97.5642 15.376 96.8843H13.6123H13.6454Z" fill="url(#paint29_radial_9_864)"/>
<path style="mix-blend-mode:screen" fill-rule="evenodd" clip-rule="evenodd" d="M15.9142 96.8843C15.9142 97.5642 15.9142 98.2678 15.9142 98.9952V101.304C16.2537 101.304 16.5767 101.304 16.8831 101.304C16.8831 100.513 16.8831 99.7225 16.8334 99.0189C16.7837 98.3153 16.8334 97.5958 16.792 96.9238L15.9142 96.8843Z" fill="url(#paint30_radial_9_864)"/>
<path fill-rule="evenodd" clip-rule="evenodd" d="M15.79 96.2281C16.5373 96.2191 17.2837 96.2827 18.0175 96.4179C18.5971 96.5365 18.9615 96.7025 18.978 96.8843C18.9946 97.0662 18.6385 97.2322 18.0672 97.3508C16.5616 97.6143 15.0185 97.6143 13.5129 97.3508C12.9416 97.2322 12.5938 97.0662 12.6021 96.8843C12.6104 96.7025 12.983 96.5365 13.5543 96.4179C14.291 96.2831 15.04 96.2196 15.79 96.2281Z" fill="url(#paint31_radial_9_864)"/>
<path fill-rule="evenodd" clip-rule="evenodd" d="M15.79 97.4693C14.134 97.4693 12.718 97.1847 12.7429 96.8448C13.2769 90.8291 13.1075 84.7753 12.2377 78.7954C12.4135 77.7596 12.6765 76.739 13.0244 75.7437H18.5557C18.9035 76.739 19.1666 77.7596 19.3424 78.7954C18.4684 84.7749 18.299 90.8292 18.8372 96.8448C18.8372 97.1847 17.471 97.4693 15.79 97.4693Z" fill="url(#paint32_linear_9_864)"/>
<path style="mix-blend-mode:multiply" opacity="0.65" fill-rule="evenodd" clip-rule="evenodd" d="M17.7856 78.7796C17.195 84.9535 17.0788 91.1606 17.4379 97.3508C18.2659 97.2401 18.8538 97.0503 18.8373 96.829C18.299 90.8134 18.4685 84.7591 19.3424 78.7796C19.1666 77.7438 18.9036 76.7232 18.5557 75.7278H17.2474C17.4897 76.7341 17.6694 77.7531 17.7856 78.7796Z" fill="url(#paint33_radial_9_864)"/>
<path style="mix-blend-mode:multiply" opacity="0.65" fill-rule="evenodd" clip-rule="evenodd" d="M13.3142 97.1926C13.666 91.0549 13.547 84.9007 12.9581 78.7796C13.0784 77.7536 13.2581 76.7348 13.4964 75.7278H13.0244C12.6765 76.7232 12.4135 77.7438 12.2377 78.7796C13.1075 84.7595 13.2769 90.8133 12.7429 96.829C12.7429 96.9634 12.9499 97.0899 13.3142 97.1926Z" fill="url(#paint34_radial_9_864)"/>
<path style="mix-blend-mode:screen" fill-rule="evenodd" clip-rule="evenodd" d="M14.076 75.5934C13.8392 76.6981 13.6953 77.819 13.6454 78.9456C13.7282 80.5268 13.9269 82.108 14.0097 83.6892C14.2457 87.5466 14.2457 91.414 14.0097 95.2715C13.8607 97.493 15.939 95.1371 15.9308 94.133C15.8811 88.5355 15.5168 79.7124 15.6327 75.5697L14.076 75.5934Z" fill="url(#paint35_radial_9_864)"/>
<path fill-rule="evenodd" clip-rule="evenodd" d="M11.6664 73.4984H19.8806C19.8309 74.202 19.7812 74.8977 19.7398 75.5776C19.6984 76.2575 19.6487 76.8821 19.6073 77.5146C19.6073 77.7123 19.1519 77.8941 18.4563 78.0285C17.5704 78.1741 16.6724 78.2429 15.7735 78.234C14.8718 78.2424 13.9712 78.1736 13.0824 78.0285C12.3868 77.8941 11.9562 77.7123 11.9397 77.5146C11.8982 76.8821 11.8568 76.2338 11.8072 75.5776C11.7575 74.9214 11.7161 74.202 11.6664 73.4984Z" fill="url(#paint36_linear_9_864)"/>
<path style="mix-blend-mode:multiply" fill-rule="evenodd" clip-rule="evenodd" d="M12.6104 77.7518C12.6104 77.0798 12.5358 76.3999 12.4944 75.7041C12.453 75.0084 12.4199 74.2494 12.3785 73.4984H11.6664C11.7161 74.202 11.7658 74.8977 11.8072 75.5776C11.8486 76.2575 11.8982 76.8821 11.9397 77.5146C11.9397 77.6806 12.246 77.8308 12.7263 77.9494C12.6621 77.9005 12.6205 77.8296 12.6104 77.7518Z" fill="url(#paint37_linear_9_864)"/>
<path style="mix-blend-mode:multiply" fill-rule="evenodd" clip-rule="evenodd" d="M18.2245 73.4984C18.2245 74.2494 18.1665 74.9847 18.1334 75.7041C18.1003 76.4236 18.0754 77.0798 18.0506 77.7518C18.0506 77.902 17.8767 78.0364 17.5786 78.1471C18.0691 78.1075 18.5543 78.0228 19.0277 77.8941C19.3837 77.7834 19.599 77.649 19.6073 77.5146C19.6487 76.8821 19.6901 76.2338 19.7398 75.5776C19.7895 74.9214 19.8309 74.202 19.8806 73.4984H18.2245Z" fill="url(#paint38_linear_9_864)"/>
<path style="mix-blend-mode:screen" fill-rule="evenodd" clip-rule="evenodd" d="M13.0078 73.4984C13.0078 74.289 13.0823 75.0795 13.1155 75.8701C13.1486 76.6607 13.1817 77.3486 13.2148 78.0601C13.5019 78.1075 13.8248 78.1471 14.1836 78.1787C14.5397 78.1787 14.9206 78.234 15.3263 78.2419C15.3263 77.4988 15.3263 76.7477 15.3263 75.965C15.3263 75.1823 15.3263 74.3838 15.3263 73.5063H13.0078V73.4984Z" fill="url(#paint39_radial_9_864)"/>
<path style="mix-blend-mode:screen" fill-rule="evenodd" clip-rule="evenodd" d="M15.9308 73.4984C15.9308 74.3443 15.9308 75.1665 15.9308 75.965V78.234C16.2951 78.234 16.6429 78.234 16.9824 78.234C16.9824 77.4988 16.9824 76.7477 17.0238 75.9729C17.0652 75.1981 17.0238 74.3917 17.0818 73.53L15.9308 73.4984Z" fill="url(#paint40_radial_9_864)"/>
<path fill-rule="evenodd" clip-rule="evenodd" d="M13.4384 71.759H18.1417C19.5245 70.9685 21.5449 69.324 22.1577 68.0511C19.715 49.7567 21.015 38.4827 22.9857 27.6752C23.1348 17.516 19.3009 5.38028 15.8397 0.154419C12.3785 5.38028 8.54465 17.5476 8.6937 27.6752C10.6313 38.4827 11.9313 49.7567 9.52174 68.0511C10.1345 69.324 12.1549 70.9368 13.5378 71.759H13.4384Z" fill="#B3B3B3"/>
<path fill-rule="evenodd" clip-rule="evenodd" d="M8.62747 27.6752L10.1345 27.525C10.1246 24.7367 10.3545 21.9523 10.8218 19.2C11.4091 15.6067 12.3065 12.066 13.5046 8.61384C14.1336 6.75463 14.8915 4.9375 15.7735 3.17451V0.154419C12.3123 5.38028 8.47842 17.5476 8.62747 27.6752Z" fill="url(#paint41_linear_9_864)"/>
<path fill-rule="evenodd" clip-rule="evenodd" d="M10.1345 27.525L8.62747 27.6752C10.5651 38.4827 11.8651 49.7566 9.45551 68.0511L11.0371 66.6597C12.0744 59.4813 12.4677 52.2316 12.2129 44.9893C11.9345 39.1312 11.2512 33.2971 10.1676 27.525H10.1345Z" fill="url(#paint42_linear_9_864)"/>
<path fill-rule="evenodd" clip-rule="evenodd" d="M13.4384 71.759C12.2643 70.2394 11.4351 68.5026 11.004 66.6597L9.42239 68.0511C10.0351 69.324 12.0556 70.9368 13.4384 71.759Z" fill="url(#paint43_radial_9_864)"/>
<path fill-rule="evenodd" clip-rule="evenodd" d="M22.9195 27.6752L21.4539 27.525C21.4501 24.7356 21.2064 21.9513 20.7252 19.2C20.1378 15.6067 19.2405 12.066 18.0423 8.61384C17.4134 6.75463 16.6555 4.9375 15.7735 3.17451V0.154419C19.2347 5.38028 23.0685 17.5476 22.9195 27.6752Z" fill="url(#paint44_linear_9_864)"/>
<path fill-rule="evenodd" clip-rule="evenodd" d="M21.4539 27.525L22.9609 27.6752C21.0233 38.4827 19.7232 49.7566 22.1329 68.0511L20.543 66.6359C19.5057 59.4576 19.1124 52.2078 19.3672 44.9656C19.6604 39.1146 20.3574 33.2884 21.4539 27.525Z" fill="url(#paint45_linear_9_864)"/>
<path fill-rule="evenodd" clip-rule="evenodd" d="M18.1417 71.7591C19.3072 70.2297 20.1251 68.4848 20.543 66.636L22.1246 68.0274C21.5118 69.3003 19.4914 70.9131 18.1086 71.7353L18.1417 71.7591Z" fill="url(#paint46_radial_9_864)"/>
<path fill-rule="evenodd" clip-rule="evenodd" d="M15.7735 26.9479L10.1345 27.525C11.2181 33.2971 11.9013 39.1313 12.1798 44.9894C12.4332 52.2237 12.0398 59.4655 11.004 66.636C11.4351 68.479 12.2643 70.2157 13.4384 71.7354H15.7735V26.9479Z" fill="url(#paint47_radial_9_864)"/>
<path style="mix-blend-mode:screen" opacity="0.5" fill-rule="evenodd" clip-rule="evenodd" d="M8.62747 27.6752C10.5651 38.4827 11.8651 49.7566 9.45551 68.0511C10.0864 66.8475 10.5352 65.5644 10.7887 64.2404C12.2129 57.9156 12.4447 40.5936 10.2421 30.6874C10.0343 29.5574 9.48453 28.5102 8.66058 27.6752H8.62747Z" fill="url(#paint48_radial_9_864)"/>
<path fill-rule="evenodd" clip-rule="evenodd" d="M15.7735 26.9479L21.4125 27.525C20.3289 33.2971 19.6456 39.1313 19.3672 44.9894C19.1138 52.2237 19.5071 59.4655 20.543 66.636C20.1118 68.479 19.2827 70.2157 18.1086 71.7354H15.7735V26.9479Z" fill="url(#paint49_radial_9_864)"/>
<path fill-rule="evenodd" clip-rule="evenodd" d="M8.62747 27.6752L10.1345 27.525C10.1246 24.7367 10.3545 21.9523 10.8218 19.1999C11.4091 15.6067 12.3065 12.0659 13.5046 8.61381C13.6702 8.15526 13.8358 7.68881 14.018 7.20654C11.5795 12.9591 10.1796 19.0647 9.8778 25.2638C9.81156 26.3312 9.9689 27.2799 8.60263 27.6356L8.62747 27.6752Z" fill="white"/>
<path opacity="0.5" fill-rule="evenodd" clip-rule="evenodd" d="M22.9195 27.6752L21.4538 27.525C21.4501 24.7356 21.2063 21.9512 20.7252 19.1999C20.1378 15.6067 19.2405 12.0659 18.0423 8.61381C17.8767 8.15526 17.7111 7.68881 17.5289 7.20654C20.0126 13.0974 21.4132 19.3532 21.6691 25.6987C21.7188 26.6711 21.8016 27.3668 22.9195 27.6436V27.6752Z" fill="#E6E6E6"/>
<path style="mix-blend-mode:multiply" fill-rule="evenodd" clip-rule="evenodd" d="M21.6774 29.4777C21.9427 28.8015 22.3677 28.1928 22.9195 27.6989H22.522L21.4538 27.525C20.3702 33.2971 19.687 39.1312 19.4086 44.9893C19.1414 52.2225 19.521 59.4643 20.543 66.6359L22.1246 68.0274C22.0832 67.7744 22.05 67.5214 22.0169 67.2368C21.2165 66.6583 20.6775 65.81 20.5099 64.865C19.6239 61.0069 19.392 52.1601 19.4086 48.966C19.4086 44.6652 20.2366 33.2173 21.6774 29.3987V29.4777Z" fill="url(#paint50_radial_9_864)"/>
<path style="mix-blend-mode:multiply" opacity="0.3" fill-rule="evenodd" clip-rule="evenodd" d="M9.66253 68.4622C10.0146 68.4197 10.3716 68.4862 10.681 68.652C11.6498 69.1342 12.569 70.9368 13.4384 71.759C12.2643 70.2394 11.4351 68.5026 11.004 66.6597L9.42239 68.0511C9.49287 68.1931 9.57309 68.3304 9.66253 68.4622Z" fill="url(#paint51_radial_9_864)"/>
<path style="mix-blend-mode:multiply" opacity="0.3" fill-rule="evenodd" clip-rule="evenodd" d="M21.8844 68.4623C21.5324 68.4197 21.1754 68.4862 20.8659 68.652C19.8971 69.1343 18.978 70.9368 18.1086 71.7591C19.2858 70.2324 20.1151 68.4873 20.543 66.636L22.1246 68.0274C22.0541 68.1694 21.9739 68.3067 21.8844 68.4386V68.4623Z" fill="url(#paint52_radial_9_864)"/>
<path style="mix-blend-mode:multiply" opacity="0.5" fill-rule="evenodd" clip-rule="evenodd" d="M16.4856 65.5686C16.8003 69.8221 19.3424 70.581 20.5513 66.6597C19.514 59.4813 19.1206 52.2316 19.3755 44.9893C19.6648 39.1305 20.3592 33.2964 21.4539 27.525C18.506 27.691 17.2143 29.7307 16.8499 33.5572C16.0279 44.2102 15.9172 54.9023 16.5187 65.5686H16.4856Z" fill="url(#paint53_radial_9_864)"/>
<path fill-rule="evenodd" clip-rule="evenodd" d="M10.8218 19.2C10.3563 21.9419 10.1264 24.7156 10.1345 27.4934L15.7735 26.9162V3.19824C15.1129 4.51117 14.5269 5.85714 14.018 7.2303C13.8358 7.71257 13.6702 8.17902 13.5046 8.63757C12.3078 12.082 11.4105 15.6148 10.8218 19.2Z" fill="url(#paint54_radial_9_864)"/>
<path fill-rule="evenodd" clip-rule="evenodd" d="M20.7252 19.2C21.2063 21.9513 21.4501 24.7356 21.4539 27.525L15.8149 26.9479V3.22986C16.4755 4.54279 17.0615 5.88876 17.5703 7.26192C17.7525 7.74419 17.9181 8.21064 18.0837 8.66919C19.2648 12.1045 20.1482 15.6266 20.7252 19.2Z" fill="url(#paint55_radial_9_864)"/>
<path style="mix-blend-mode:screen" fill-rule="evenodd" clip-rule="evenodd" d="M14.7798 25.8726C14.1339 26.6632 11.8651 27.3431 10.7969 27.4538L15.7652 26.9478V9.47559L15.318 23.7064C15.386 24.4734 15.1944 25.241 14.7715 25.8963L14.7798 25.8726Z" fill="url(#paint56_radial_9_864)"/>
<path style="mix-blend-mode:multiply" fill-rule="evenodd" clip-rule="evenodd" d="M15.7735 3.20612C16.1544 8.82729 16.2703 17.1128 17.355 22.5205C18.0092 25.8015 19.4748 27.019 21.4125 27.525C21.4224 24.7367 21.1925 21.9523 20.7252 19.2C20.1378 15.6067 19.2405 12.066 18.0423 8.61383C17.8767 8.15528 17.7111 7.68883 17.5289 7.20656C17.0201 5.8334 16.4341 4.48743 15.7735 3.1745V3.20612Z" fill="url(#paint57_radial_9_864)"/>
<path style="mix-blend-mode:screen" fill-rule="evenodd" clip-rule="evenodd" d="M10.7969 27.4539C13.5709 28.4737 14.5562 32.0314 15.0282 36.522C15.7403 43.2738 15.8977 57.8682 14.962 64.3907C14.49 67.7349 12.4779 68.8734 11.0039 66.6597C11.4351 68.5027 12.2643 70.2395 13.4384 71.7591H15.7735V26.9479L10.8052 27.4539H10.7969Z" fill="url(#paint58_radial_9_864)"/>
<path fill-rule="evenodd" clip-rule="evenodd" d="M15.7735 69.7984C12.3123 73.949 4.84332 70.0039 3.40253 67.2922C2.24516 68.1952 1.33568 69.3539 0.752777 70.668C2.58937 72.4471 4.98605 73.6024 7.57584 73.9569C10.2873 74.2658 13.0203 74.3662 15.7486 74.2574C18.4769 74.3662 21.21 74.2658 23.9214 73.9569C26.5112 73.6024 28.9079 72.4471 30.7445 70.668C30.171 69.3507 29.27 68.1866 28.1196 67.2764C26.6788 69.9881 19.2098 73.9332 15.7486 69.7826L15.7735 69.7984Z" fill="url(#paint59_linear_9_864)"/>
<path fill-rule="evenodd" clip-rule="evenodd" d="M15.7735 74.2573V69.7983C12.3123 73.949 4.84332 70.0039 3.40252 67.2921C2.24516 68.1952 1.33568 69.3539 0.752777 70.668C2.58937 72.447 4.98605 73.6023 7.57584 73.9569C10.2873 74.2657 13.0203 74.3662 15.7486 74.2573H15.7735Z" fill="url(#paint60_linear_9_864)"/>
<path style="mix-blend-mode:screen" opacity="0.25" fill-rule="evenodd" clip-rule="evenodd" d="M3.40252 67.2764C3.30183 67.8869 3.34548 68.5112 3.53031 69.1036C3.71514 69.6959 4.03644 70.2413 4.47067 70.6997C6.88028 73.1347 13.7779 73.6802 15.7735 71.9172V69.7984C12.3123 73.949 4.84331 70.0039 3.40252 67.2922V67.2764Z" fill="url(#paint61_linear_9_864)"/>
<path style="mix-blend-mode:screen" opacity="0.2" fill-rule="evenodd" clip-rule="evenodd" d="M28.1444 67.2764C28.2451 67.8869 28.2015 68.5112 28.0166 69.1036C27.8318 69.6959 27.5105 70.2413 27.0763 70.6997C24.6667 73.1347 17.7691 73.6802 15.7735 71.9172V69.7984C19.2347 73.949 26.7036 70.0039 28.1444 67.2922V67.2764Z" fill="url(#paint62_linear_9_864)"/>
<path style="mix-blend-mode:screen" opacity="0.35" fill-rule="evenodd" clip-rule="evenodd" d="M28.9062 68.2725C28.6141 68.1749 28.2958 68.1749 28.0037 68.2725C27.275 68.5176 25.6189 70.4625 22.7539 71.1187C24.3679 70.5835 25.8442 69.7265 27.0845 68.6046C27.365 68.3425 27.62 68.0567 27.8463 67.7507C27.951 67.6096 28.045 67.4617 28.1279 67.308C28.6622 67.6756 29.1271 68.1274 29.5024 68.6441C29.3281 68.4956 29.1258 68.3803 28.9062 68.3041V68.2725Z" fill="url(#paint63_linear_9_864)"/>
<path style="mix-blend-mode:multiply" fill-rule="evenodd" clip-rule="evenodd" d="M18.5308 71.6246C18.8876 71.6524 19.2465 71.6364 19.599 71.5772C19.3211 71.5678 19.0444 71.5388 18.771 71.4902H18.6137H18.5722C17.4655 71.2648 16.4775 70.6742 15.7817 69.8221V74.2969C18.51 74.4057 21.2431 74.3053 23.9545 73.9964C24.9248 73.8396 25.8763 73.5907 26.7947 73.2533C24.1533 73.9965 20.5596 74.5182 18.1417 73.9332C17.4461 73.7672 16.2123 72.6524 16.6264 71.8065C16.8168 71.4428 17.1811 71.5377 17.6448 71.6009C17.8932 71.6009 18.1665 71.6563 18.4315 71.6721H18.5391L18.5308 71.6246Z" fill="url(#paint64_linear_9_864)"/>
<path style="mix-blend-mode:screen" fill-rule="evenodd" clip-rule="evenodd" d="M13.0161 71.6246C12.6594 71.6524 12.3004 71.6364 11.9479 71.5772C12.2258 71.5678 12.5026 71.5388 12.7759 71.4902H12.9333C14.04 71.2648 15.028 70.6742 15.7238 69.8221V74.2969C12.9955 74.4057 10.2624 74.3053 7.551 73.9964C6.58072 73.8396 5.62927 73.5907 4.71082 73.2533C7.35227 73.9965 10.946 74.5182 13.3639 73.9332C14.0594 73.7672 15.2932 72.6524 14.8792 71.8065C14.6887 71.4428 14.3244 71.5377 13.8607 71.6009C13.6123 71.6009 13.339 71.6563 13.0741 71.6721H12.9664L13.0161 71.6246Z" fill="url(#paint65_linear_9_864)"/>
<path style="mix-blend-mode:screen" opacity="0.35" fill-rule="evenodd" clip-rule="evenodd" d="M2.62415 68.2725C2.91632 68.1749 3.23454 68.1749 3.52671 68.2725C4.25539 68.5176 5.91147 70.4625 8.7765 71.1187C7.16246 70.5835 5.68619 69.7265 4.44583 68.6046C4.16539 68.3425 3.91042 68.0567 3.68404 67.7507C3.57941 67.6096 3.48533 67.4617 3.40251 67.308C2.86815 67.6756 2.40331 68.1274 2.02795 68.6441C2.20226 68.4956 2.4046 68.3803 2.62415 68.3041V68.2725Z" fill="url(#paint66_linear_9_864)"/>
<path style="mix-blend-mode:screen" opacity="0.75" d="M14.5563 31.2566C17.7758 31.2566 20.3857 28.7647 20.3857 25.6908C20.3857 22.6169 17.7758 20.125 14.5563 20.125C11.3368 20.125 8.72684 22.6169 8.72684 25.6908C8.72684 28.7647 11.3368 31.2566 14.5563 31.2566Z" fill="url(#paint67_radial_9_864)"/>
<defs>
<radialGradient id="paint0_radial_9_864" cx="0" cy="0" r="1" gradientUnits="userSpaceOnUse" gradientTransform="translate(18.5031 96.6085) scale(10.8854 5.54308)">
<stop stop-color="#E8A8FF"/>
<stop offset="1" stop-color="#9033E8"/>
</radialGradient>
<radialGradient id="paint1_radial_9_864" cx="0" cy="0" r="1" gradientUnits="userSpaceOnUse" gradientTransform="translate(845.34 74.7959) scale(12.1557 1.84762)">
<stop stop-color="#E8A8FF"/>
<stop offset="1" stop-color="#9033E8"/>
</radialGradient>
<radialGradient id="paint2_radial_9_864" cx="0" cy="0" r="1" gradientUnits="userSpaceOnUse" gradientTransform="translate(585.12 80.5058) scale(5.19567 0.94147)">
<stop stop-color="#E8A8FF"/>
<stop offset="1" stop-color="#9033E8"/>
</radialGradient>
<radialGradient id="paint3_radial_9_864" cx="0" cy="0" r="1" gradientUnits="userSpaceOnUse" gradientTransform="translate(15.778 100.487) scale(4.50371 2.29338)">
<stop stop-color="white"/>
<stop offset="1" stop-color="#B37AC7"/>
</radialGradient>
<radialGradient id="paint4_radial_9_864" cx="0" cy="0" r="1" gradientUnits="userSpaceOnUse" gradientTransform="translate(13.3548 107.252) scale(15.0257 7.47338)">
<stop stop-color="#DB8FE6"/>
<stop offset="1" stop-color="#6F05BD"/>
</radialGradient>
<radialGradient id="paint5_radial_9_864" cx="0" cy="0" r="1" gradientUnits="userSpaceOnUse" gradientTransform="translate(12.3388 109.528) scale(9.5424 4.74611)">
<stop stop-color="#E8C0E6"/>
<stop offset="1" stop-color="#BF7DE6"/>
</radialGradient>
<radialGradient id="paint6_radial_9_864" cx="0" cy="0" r="1" gradientUnits="userSpaceOnUse" gradientTransform="translate(-0.895913 105.162) scale(14.9189 7.42028)">
<stop stop-color="#E8C0E6"/>
<stop offset="1" stop-color="#A950E6"/>
</radialGradient>
<radialGradient id="paint7_radial_9_864" cx="0" cy="0" r="1" gradientUnits="userSpaceOnUse" gradientTransform="translate(14.2896 111.378) scale(14.0999 7.01295)">
<stop stop-color="#DB8FE6"/>
<stop offset="1" stop-color="#831ACF"/>
</radialGradient>
<radialGradient id="paint8_radial_9_864" cx="0" cy="0" r="1" gradientUnits="userSpaceOnUse" gradientTransform="translate(426.309 12.0155) scale(9.85199 10.4774)">
<stop stop-color="#DB8FE6"/>
<stop offset="1" stop-color="#831ACF"/>
</radialGradient>
<radialGradient id="paint9_radial_9_864" cx="0" cy="0" r="1" gradientUnits="userSpaceOnUse" gradientTransform="translate(12.3723 101.39) scale(14.3135 7.11918)">
<stop stop-color="#D07BE6"/>
<stop offset="1" stop-color="#A64AE6"/>
</radialGradient>
<radialGradient id="paint10_radial_9_864" cx="0" cy="0" r="1" gradientUnits="userSpaceOnUse" gradientTransform="translate(8.13314 104.294) scale(9.56014 4.75496)">
<stop stop-color="#DF9FE6"/>
<stop offset="1" stop-color="#AE5AE6"/>
</radialGradient>
<radialGradient id="paint11_radial_9_864" cx="0" cy="0" r="1" gradientUnits="userSpaceOnUse" gradientTransform="translate(650.776 -101.305) scale(18.4322 28.7779)">
<stop stop-color="#DB8FE6"/>
<stop offset="1" stop-color="#831ACF"/>
</radialGradient>
<radialGradient id="paint12_radial_9_864" cx="0" cy="0" r="1" gradientUnits="userSpaceOnUse" gradientTransform="translate(3.43852 104.587) scale(17.3045 8.60677)">
<stop stop-color="#DF9FE6"/>
<stop offset="1" stop-color="#A240E6"/>
</radialGradient>
<radialGradient id="paint13_radial_9_864" cx="0" cy="0" r="1" gradientUnits="userSpaceOnUse" gradientTransform="translate(612.773 -38.9395) scale(7.25292 9.06674)">
<stop stop-color="#DB8FE6"/>
<stop offset="1" stop-color="#831ACF"/>
</radialGradient>
<radialGradient id="paint14_radial_9_864" cx="0" cy="0" r="1" gradientUnits="userSpaceOnUse" gradientTransform="translate(15.7705 101.629) scale(5.19839 2.58557)">
<stop offset="0.35" stop-color="#DB8FE6"/>
<stop offset="1" stop-color="#831ACF"/>
</radialGradient>
<radialGradient id="paint15_radial_9_864" cx="0" cy="0" r="1" gradientUnits="userSpaceOnUse" gradientTransform="translate(436.823 -6.36772) scale(5.81064 7.47757)">
<stop stop-color="#DB8FE6"/>
<stop offset="1" stop-color="#831ACF"/>
</radialGradient>
<radialGradient id="paint16_radial_9_864" cx="0" cy="0" r="1" gradientUnits="userSpaceOnUse" gradientTransform="translate(10.2802 104.117) scale(7.53062 3.74555)">
<stop stop-color="#C94AE6"/>
<stop offset="1"/>
</radialGradient>
<radialGradient id="paint17_radial_9_864" cx="0" cy="0" r="1" gradientUnits="userSpaceOnUse" gradientTransform="translate(13.3775 103.48) scale(10.9488 5.44564)">
<stop stop-color="#F2E6E6"/>
<stop offset="1" stop-color="#A661AE"/>
</radialGradient>
<radialGradient id="paint18_radial_9_864" cx="0" cy="0" r="1" gradientUnits="userSpaceOnUse" gradientTransform="translate(468.194 -4.78652) scale(9.00344 11.4747)">
<stop stop-color="#DB8FE6"/>
<stop offset="1" stop-color="#831ACF"/>
</radialGradient>
<radialGradient id="paint19_radial_9_864" cx="0" cy="0" r="1" gradientUnits="userSpaceOnUse" gradientTransform="translate(751.892 -101.266) scale(13.6277 18.0888)">
<stop stop-color="#F2E6E6"/>
<stop offset="1" stop-color="#A661AE"/>
</radialGradient>
<radialGradient id="paint20_radial_9_864" cx="0" cy="0" r="1" gradientUnits="userSpaceOnUse" gradientTransform="translate(14.0338 102.32) scale(8.11816 4.03776)">
<stop stop-color="#DB8DE6"/>
<stop offset="1"/>
</radialGradient>
<radialGradient id="paint21_radial_9_864" cx="0" cy="0" r="1" gradientUnits="userSpaceOnUse" gradientTransform="translate(768.5 -52.7466) scale(28.9248 28.2815)">
<stop stop-color="#DB8DE6"/>
<stop offset="1"/>
</radialGradient>
<radialGradient id="paint22_radial_9_864" cx="0" cy="0" r="1" gradientUnits="userSpaceOnUse" gradientTransform="translate(247.217 15.0857) scale(1.92567 3.45143)">
<stop stop-color="#DB8DE6"/>
<stop offset="1"/>
</radialGradient>
<radialGradient id="paint23_radial_9_864" cx="0" cy="0" r="1" gradientUnits="userSpaceOnUse" gradientTransform="translate(10.8367 109.607) scale(7.63746 3.79869)">
<stop stop-color="#E8C0E6"/>
<stop offset="1" stop-color="#40194D"/>
</radialGradient>
<radialGradient id="paint24_radial_9_864" cx="0" cy="0" r="1" gradientUnits="userSpaceOnUse" gradientTransform="translate(16.469 104) scale(3.79244 3.62094)">
<stop stop-color="#C586CA"/>
<stop offset="0.27" stop-color="#C83EE6"/>
<stop offset="0.32" stop-color="#B438CF"/>
<stop offset="0.48" stop-color="#752486"/>
<stop offset="0.62" stop-color="#43154C"/>
<stop offset="0.74" stop-color="#1E0923"/>
<stop offset="0.84" stop-color="#080309"/>
<stop offset="0.89"/>
</radialGradient>
<radialGradient id="paint25_radial_9_864" cx="0" cy="0" r="1" gradientUnits="userSpaceOnUse" gradientTransform="translate(1198.66 477.537) scale(3.92757 3.74999)">
<stop stop-color="#C586CA"/>
<stop offset="0.27" stop-color="#C83EE6"/>
<stop offset="0.32" stop-color="#B438CF"/>
<stop offset="0.48" stop-color="#752486"/>
<stop offset="0.62" stop-color="#43154C"/>
<stop offset="0.74" stop-color="#1E0923"/>
<stop offset="0.84" stop-color="#080309"/>
<stop offset="0.89"/>
</radialGradient>
<linearGradient id="paint26_linear_9_864" x1="12.362" y1="99.0901" x2="19.2182" y2="99.0901" gradientUnits="userSpaceOnUse">
<stop stop-color="#495D7A"/>
<stop offset="0.34" stop-color="#6F869E"/>
<stop offset="1" stop-color="#3E5170"/>
</linearGradient>
<linearGradient id="paint27_linear_9_864" x1="12.3619" y1="98.9319" x2="13.1486" y2="98.9319" gradientUnits="userSpaceOnUse">
<stop stop-color="#A2C8E8"/>
<stop offset="0.35" stop-color="#C3DCF0"/>
<stop offset="1" stop-color="white"/>
</linearGradient>
<linearGradient id="paint28_linear_9_864" x1="17.4461" y1="99.0426" x2="19.2181" y2="99.0426" gradientUnits="userSpaceOnUse">
<stop stop-color="white"/>
<stop offset="0.65" stop-color="#C3DCF0"/>
<stop offset="1" stop-color="#A2C8E8"/>
</linearGradient>
<radialGradient id="paint29_radial_9_864" cx="0" cy="0" r="1" gradientUnits="userSpaceOnUse" gradientTransform="translate(11.36 100.529) scale(7.47725 7.13913)">
<stop stop-color="#E192E8"/>
<stop offset="0.13" stop-color="#BA79C0"/>
<stop offset="0.37" stop-color="#794E7C"/>
<stop offset="0.58" stop-color="#452D47"/>
<stop offset="0.76" stop-color="#1F1420"/>
<stop offset="0.91" stop-color="#080509"/>
<stop offset="1"/>
</radialGradient>
<radialGradient id="paint30_radial_9_864" cx="0" cy="0" r="1" gradientUnits="userSpaceOnUse" gradientTransform="translate(13.3307 101.454) scale(7.22063 6.89405)">
<stop stop-color="#E1B5E8"/>
<stop offset="0.13" stop-color="#BA96C0"/>
<stop offset="0.37" stop-color="#79617C"/>
<stop offset="0.58" stop-color="#453747"/>
<stop offset="0.76" stop-color="#1F1920"/>
<stop offset="0.91" stop-color="#080709"/>
<stop offset="1"/>
</radialGradient>
<radialGradient id="paint31_radial_9_864" cx="0" cy="0" r="1" gradientUnits="userSpaceOnUse" gradientTransform="translate(15.0945 98.1256) scale(3.41154 3.25729)">
<stop stop-color="#A1C3E6"/>
<stop offset="1" stop-color="#506991"/>
</radialGradient>
<linearGradient id="paint32_linear_9_864" x1="12.2377" y1="86.5907" x2="19.3424" y2="86.5907" gradientUnits="userSpaceOnUse">
<stop stop-color="#3D221B"/>
<stop offset="0.27" stop-color="#664437"/>
<stop offset="1" stop-color="#3B291E"/>
</linearGradient>
<radialGradient id="paint33_radial_9_864" cx="0" cy="0" r="1" gradientUnits="userSpaceOnUse" gradientTransform="translate(28.2439 88.1165) scale(37.0551 35.3794)">
<stop stop-color="#787E8F"/>
<stop offset="0.54" stop-color="#C3C6CD"/>
<stop offset="1" stop-color="white"/>
</radialGradient>
<radialGradient id="paint34_radial_9_864" cx="0" cy="0" r="1" gradientUnits="userSpaceOnUse" gradientTransform="translate(587.469 3008.25) scale(39.968 673.565)">
<stop stop-color="#787E8F"/>
<stop offset="0.54" stop-color="#C3C6CD"/>
<stop offset="1" stop-color="white"/>
</radialGradient>
<radialGradient id="paint35_radial_9_864" cx="0" cy="0" r="1" gradientUnits="userSpaceOnUse" gradientTransform="translate(1.3656 96.4494) scale(23.1519 22.1052)">
<stop stop-color="#8F4A64"/>
<stop offset="1"/>
</radialGradient>
<linearGradient id="paint36_linear_9_864" x1="3824.53" y1="649.83" x2="3906.02" y2="649.83" gradientUnits="userSpaceOnUse">
<stop stop-color="#495D7A"/>
<stop offset="0.34" stop-color="#6F869E"/>
<stop offset="1" stop-color="#3E5170"/>
</linearGradient>
<linearGradient id="paint37_linear_9_864" x1="503.648" y1="614.259" x2="505.005" y2="614.259" gradientUnits="userSpaceOnUse">
<stop stop-color="#A2C8E8"/>
<stop offset="0.35" stop-color="#C3DCF0"/>
<stop offset="1" stop-color="white"/>
</linearGradient>
<linearGradient id="paint38_linear_9_864" x1="1102.54" y1="638.876" x2="1108.94" y2="638.876" gradientUnits="userSpaceOnUse">
<stop stop-color="white"/>
<stop offset="0.65" stop-color="#C3DCF0"/>
<stop offset="1" stop-color="#A2C8E8"/>
</linearGradient>
<radialGradient id="paint39_radial_9_864" cx="0" cy="0" r="1" gradientUnits="userSpaceOnUse" gradientTransform="translate(10.0931 78.5266) scale(8.12316 7.75578)">
<stop stop-color="#B5CBE8"/>
<stop offset="0.13" stop-color="#96A8C0"/>
<stop offset="0.37" stop-color="#616D7C"/>
<stop offset="0.58" stop-color="#373E47"/>
<stop offset="0.76" stop-color="#191C20"/>
<stop offset="0.91" stop-color="#070809"/>
<stop offset="1"/>
</radialGradient>
<radialGradient id="paint40_radial_9_864" cx="0" cy="0" r="1" gradientUnits="userSpaceOnUse" gradientTransform="translate(549.255 661.15) scale(11.7401 48.304)">
<stop stop-color="#B5CBE8"/>
<stop offset="0.13" stop-color="#96A8C0"/>
<stop offset="0.37" stop-color="#616D7C"/>
<stop offset="0.58" stop-color="#373E47"/>
<stop offset="0.76" stop-color="#191C20"/>
<stop offset="0.91" stop-color="#070809"/>
<stop offset="1"/>
</radialGradient>
<linearGradient id="paint41_linear_9_864" x1="12.1963" y1="27.6752" x2="12.1963" y2="0.154419" gradientUnits="userSpaceOnUse">
<stop stop-color="#A9C5CF"/>
<stop offset="1" stop-color="#D9F2FA"/>
</linearGradient>
<linearGradient id="paint42_linear_9_864" x1="1702.42" y1="4557.94" x2="1702.42" y2="2480.57" gradientUnits="userSpaceOnUse">
<stop stop-color="#A9C5CF"/>
<stop offset="1" stop-color="#D9F2FA"/>
</linearGradient>
<radialGradient id="paint43_radial_9_864" cx="0" cy="0" r="1" gradientUnits="userSpaceOnUse" gradientTransform="translate(1854.74 644.164) scale(28.9956 36.8175)">
<stop stop-color="#A1C3E6"/>
<stop offset="1" stop-color="#506991"/>
</radialGradient>
<linearGradient id="paint44_linear_9_864" x1="19.3506" y1="27.6752" x2="19.3506" y2="0.154419" gradientUnits="userSpaceOnUse">
<stop stop-color="#89A7CC"/>
<stop offset="1" stop-color="#A1B9C9"/>
</linearGradient>
<linearGradient id="paint45_linear_9_864" x1="1764.1" y1="4557.94" x2="1764.1" y2="2480.57" gradientUnits="userSpaceOnUse">
<stop stop-color="#89A7CC"/>
<stop offset="1" stop-color="#A1B9C9"/>
</linearGradient>
<radialGradient id="paint46_radial_9_864" cx="0" cy="0" r="1" gradientUnits="userSpaceOnUse" gradientTransform="translate(1938.25 660.402) scale(31.3651 40.0113)">
<stop stop-color="#A1C3E6"/>
<stop offset="1" stop-color="#506991"/>
</radialGradient>
<radialGradient id="paint47_radial_9_864" cx="0" cy="0" r="1" gradientUnits="userSpaceOnUse" gradientTransform="translate(4.79359 59.4178) scale(36.2519 34.6125)">
<stop stop-color="#ABC3DB"/>
<stop offset="1" stop-color="#637A96"/>
</radialGradient>
<radialGradient id="paint48_radial_9_864" cx="0" cy="0" r="1" gradientUnits="userSpaceOnUse" gradientTransform="translate(-0.0255408 47.3532) scale(29.8922 28.5407)">
<stop/>
<stop offset="0.09" stop-color="#111316"/>
<stop offset="0.72" stop-color="#8696AC"/>
<stop offset="1" stop-color="#B5CBE8"/>
</radialGradient>
<radialGradient id="paint49_radial_9_864" cx="0" cy="0" r="1" gradientUnits="userSpaceOnUse" gradientTransform="translate(2890.35 3947.2) scale(286.854 2278.34)">
<stop stop-color="#A1C3E6"/>
<stop offset="1" stop-color="#506991"/>
</radialGradient>
<radialGradient id="paint50_radial_9_864" cx="0" cy="0" r="1" gradientUnits="userSpaceOnUse" gradientTransform="translate(35.5968 51.7569) scale(29.7101 28.3667)">
<stop stop-color="white"/>
<stop offset="0.67" stop-color="#C3D1F5"/>
<stop offset="1" stop-color="#A5B9F0"/>
</radialGradient>
<radialGradient id="paint51_radial_9_864" cx="0" cy="0" r="1" gradientUnits="userSpaceOnUse" gradientTransform="translate(8.69372 68.5413) scale(5.69694 5.43933)">
<stop stop-color="white"/>
<stop offset="0.46" stop-color="#C3C6CD"/>
<stop offset="1" stop-color="#787E8F"/>
</radialGradient>
<radialGradient id="paint52_radial_9_864" cx="0" cy="0" r="1" gradientUnits="userSpaceOnUse" gradientTransform="translate(1938.09 641.241) scale(31.3651 40.0113)">
<stop stop-color="white"/>
<stop offset="0.46" stop-color="#C3C6CD"/>
<stop offset="1" stop-color="#787E8F"/>
</radialGradient>
<radialGradient id="paint53_radial_9_864" cx="0" cy="0" r="1" gradientUnits="userSpaceOnUse" gradientTransform="translate(2722.15 4474.17) scale(464.957 3646.54)">
<stop stop-color="white"/>
<stop offset="0.46" stop-color="#C3C6CD"/>
<stop offset="1" stop-color="#787E8F"/>
</radialGradient>
<radialGradient id="paint54_radial_9_864" cx="0" cy="0" r="1" gradientUnits="userSpaceOnUse" gradientTransform="translate(16.262 26.6079) scale(34.927 33.3475)">
<stop stop-color="#CFE2E8"/>
<stop offset="1" stop-color="#5C779E"/>
</radialGradient>
<radialGradient id="paint55_radial_9_864" cx="0" cy="0" r="1" gradientUnits="userSpaceOnUse" gradientTransform="translate(2740.57 829.993) scale(203.567 877.054)">
<stop stop-color="#A1C3E6"/>
<stop offset="1" stop-color="#506991"/>
</radialGradient>
<radialGradient id="paint56_radial_9_864" cx="0" cy="0" r="1" gradientUnits="userSpaceOnUse" gradientTransform="translate(2280.15 805.732) scale(119.288 431.658)">
<stop/>
<stop offset="0.09" stop-color="#111316"/>
<stop offset="0.72" stop-color="#8696AC"/>
<stop offset="1" stop-color="#B5CBE8"/>
</radialGradient>
<radialGradient id="paint57_radial_9_864" cx="0" cy="0" r="1" gradientUnits="userSpaceOnUse" gradientTransform="translate(1.78786 23.4929) scale(35.9785 34.3516)">
<stop offset="0.38" stop-color="white"/>
<stop offset="0.67" stop-color="#C3C6CD"/>
<stop offset="1" stop-color="#787E8F"/>
</radialGradient>
<radialGradient id="paint58_radial_9_864" cx="0" cy="0" r="1" gradientUnits="userSpaceOnUse" gradientTransform="translate(-4.66265 39.6212) scale(46.1966 44.1076)">
<stop offset="0.38"/>
<stop offset="0.43" stop-color="#070809"/>
<stop offset="0.52" stop-color="#191C20"/>
<stop offset="0.64" stop-color="#373E47"/>
<stop offset="0.77" stop-color="#616D7C"/>
<stop offset="0.92" stop-color="#96A8C0"/>
<stop offset="1" stop-color="#B5CBE8"/>
</radialGradient>
<linearGradient id="paint59_linear_9_864" x1="0.777618" y1="70.7708" x2="30.7693" y2="70.7708" gradientUnits="userSpaceOnUse">
<stop stop-color="#3E5170"/>
<stop offset="1" stop-color="#6F869E"/>
</linearGradient>
<linearGradient id="paint60_linear_9_864" x1="0.777618" y1="70.7708" x2="15.7735" y2="70.7708" gradientUnits="userSpaceOnUse">
<stop stop-color="#637A96"/>
<stop offset="1" stop-color="#ABC3DB"/>
</linearGradient>
<linearGradient id="paint61_linear_9_864" x1="3.37767" y1="70.1146" x2="15.7735" y2="70.1146" gradientUnits="userSpaceOnUse">
<stop/>
<stop offset="0.09" stop-color="#070809"/>
<stop offset="0.24" stop-color="#191C20"/>
<stop offset="0.42" stop-color="#373E47"/>
<stop offset="0.63" stop-color="#616D7C"/>
<stop offset="0.87" stop-color="#96A8C0"/>
<stop offset="1" stop-color="#B5CBE8"/>
</linearGradient>
<linearGradient id="paint62_linear_9_864" x1="5844.25" y1="716.528" x2="6030.24" y2="716.528" gradientUnits="userSpaceOnUse">
<stop/>
<stop offset="0.09" stop-color="#070809"/>
<stop offset="0.24" stop-color="#191C20"/>
<stop offset="0.42" stop-color="#373E47"/>
<stop offset="0.63" stop-color="#616D7C"/>
<stop offset="0.87" stop-color="#96A8C0"/>
<stop offset="1" stop-color="#B5CBE8"/>
</linearGradient>
<linearGradient id="paint63_linear_9_864" x1="3245.79" y1="498.754" x2="3300.79" y2="498.754" gradientUnits="userSpaceOnUse">
<stop/>
<stop offset="0.09" stop-color="#070809"/>
<stop offset="0.24" stop-color="#191C20"/>
<stop offset="0.42" stop-color="#373E47"/>
<stop offset="0.63" stop-color="#616D7C"/>
<stop offset="0.87" stop-color="#96A8C0"/>
<stop offset="1" stop-color="#B5CBE8"/>
</linearGradient>
<linearGradient id="paint64_linear_9_864" x1="5182.41" y1="597.53" x2="5328.89" y2="597.53" gradientUnits="userSpaceOnUse">
<stop stop-color="#A2C8E8"/>
<stop offset="0.35" stop-color="#C3DCF0"/>
<stop offset="1" stop-color="white"/>
</linearGradient>
<linearGradient id="paint65_linear_9_864" x1="5024.86" y1="597.53" x2="5171.33" y2="597.53" gradientUnits="userSpaceOnUse">
<stop/>
<stop offset="0.09" stop-color="#070809"/>
<stop offset="0.24" stop-color="#191C20"/>
<stop offset="0.42" stop-color="#373E47"/>
<stop offset="0.63" stop-color="#616D7C"/>
<stop offset="0.87" stop-color="#96A8C0"/>
<stop offset="1" stop-color="#B5CBE8"/>
</linearGradient>
<linearGradient id="paint66_linear_9_864" x1="3056.01" y1="498.754" x2="3111.02" y2="498.754" gradientUnits="userSpaceOnUse">
<stop stop-color="#B5CBE8"/>
<stop offset="0.13" stop-color="#96A8C0"/>
<stop offset="0.37" stop-color="#616D7C"/>
<stop offset="0.58" stop-color="#373E47"/>
<stop offset="0.76" stop-color="#191C20"/>
<stop offset="0.91" stop-color="#070809"/>
<stop offset="1"/>
</linearGradient>
<radialGradient id="paint67_radial_9_864" cx="0" cy="0" r="1" gradientUnits="userSpaceOnUse" gradientTransform="translate(14.5563 25.6908) scale(5.82942 5.56582)">
<stop stop-color="#A8E8FF"/>
<stop offset="0.01" stop-color="#A4E3F9"/>
<stop offset="0.18" stop-color="#79A8B8"/>
<stop offset="0.34" stop-color="#547480"/>
<stop offset="0.49" stop-color="#364B52"/>
<stop offset="0.64" stop-color="#1F2A2E"/>
<stop offset="0.78" stop-color="#0E1315"/>
<stop offset="0.9" stop-color="#040505"/>
<stop offset="1"/>
</radialGradient>
</defs>
</svg>
